<svg version="1.1" width="211" height="135" viewBox="-1 -1 211 135" xmlns="http://www.w3.org/2000/svg" xmlns:xlink="http://www.w3.org/1999/xlink">
  <defs>
    <radialGradient id="grad_1" cx="0.0706" cy="0.5139" r="1.20822">
      <stop offset="0" stop-color="#4D052E" stop-opacity="1"/>
      <stop offset="1" stop-color="#110109" stop-opacity="1"/>
    </radialGradient>
    <radialGradient id="grad_2" cx="0.0706" cy="0.5139" r="1.20822">
      <stop offset="0" stop-color="#4D052E" stop-opacity="1"/>
      <stop offset="1" stop-color="#110109" stop-opacity="1"/>
    </radialGradient>
    <radialGradient id="grad_3" cx="0.0706" cy="0.5139" r="1.20822">
      <stop offset="0" stop-color="#4D052E" stop-opacity="1"/>
      <stop offset="1" stop-color="#110109" stop-opacity="1"/>
    </radialGradient>
    <radialGradient id="grad_4" cx="0.0706" cy="0.5139" r="1.20822">
      <stop offset="0" stop-color="#4D052E" stop-opacity="1"/>
      <stop offset="1" stop-color="#110109" stop-opacity="1"/>
    </radialGradient>
    <radialGradient id="grad_5" cx="0.0706" cy="0.5139" r="1.20822">
      <stop offset="0" stop-color="#4D052E" stop-opacity="1"/>
      <stop offset="1" stop-color="#110109" stop-opacity="1"/>
    </radialGradient>
    <radialGradient id="grad_6" cx="0.0706" cy="0.5139" r="1.20822">
      <stop offset="0" stop-color="#4D052E" stop-opacity="1"/>
      <stop offset="1" stop-color="#110109" stop-opacity="1"/>
    </radialGradient>
    <radialGradient id="grad_7" cx="0.0706" cy="0.5139" r="1.20822">
      <stop offset="0" stop-color="#4D052E" stop-opacity="1"/>
      <stop offset="1" stop-color="#110109" stop-opacity="1"/>
    </radialGradient>
    <radialGradient id="grad_8" cx="0.0706" cy="0.5139" r="1.20822">
      <stop offset="0" stop-color="#4D052E" stop-opacity="1"/>
      <stop offset="1" stop-color="#110109" stop-opacity="1"/>
    </radialGradient>
    <radialGradient id="grad_9" cx="0.0706" cy="0.5139" r="1.20822">
      <stop offset="0" stop-color="#4D052E" stop-opacity="1"/>
      <stop offset="1" stop-color="#110109" stop-opacity="1"/>
    </radialGradient>
  </defs>
  <!-- Exported by Scratch - http://scratch.mit.edu/ -->
  <g id="ID0.29466908797621727" transform="matrix(0.9924995303153992, -0.12224825471639633, 0.12224825471639633, 0.9924995303153992, -192.7, -104.05)">
    <path id="ID0.05463147349655628" fill="#007124" stroke="none" stroke-linecap="round" d="M 199.100 136.150 L 199.650 136.150 L 200.500 136.450 L 201.300 140.600 L 201.750 141.750 L 202.650 142.300 L 203.050 142.800 L 202.800 143.800 L 199.150 143.800 L 199.100 136.150 Z " transform="matrix(1.2880094051361084, 0, 0, 2.238682985305786, -51.85, -173.85)"/>
    <path id="ID0.05463147349655628" fill="#007124" stroke="none" stroke-linecap="round" d="M 199.100 136.150 L 199.650 136.150 L 200.500 136.450 L 201.300 140.600 L 201.750 141.750 L 202.650 142.300 L 203.050 142.800 L 202.800 143.800 L 199.150 143.800 L 199.100 136.150 Z " transform="matrix(-1.288009524345398, 0, 0, 2.238682985305786, 461.25, -173.85)"/>
  </g>
  <path id="ID0.6938812183216214" fill="#110109" stroke="url(#grad_1)" stroke-width="2" d="M 193.325 152.650 C 196.270 152.650 198.939 153.846 200.871 155.779 C 202.804 157.711 204 160.380 204 163.325 C 204 166.270 202.804 168.939 200.871 170.871 C 198.939 172.804 196.270 174 193.325 174 C 190.380 174 187.711 172.804 185.779 170.871 C 183.846 168.939 182.650 166.270 182.650 163.325 C 182.650 160.380 183.846 157.711 185.779 155.779 C 187.711 153.846 190.380 152.650 193.325 152.650 Z " transform="matrix(1, 0, 0, 1, -164.75, -104.95)"/>
  <path id="ID0.6938812183216214" fill="#110109" stroke="url(#grad_2)" stroke-width="2" d="M 193.325 152.650 C 196.270 152.650 198.939 153.846 200.871 155.779 C 202.804 157.711 204 160.380 204 163.325 C 204 166.270 202.804 168.939 200.871 170.871 C 198.939 172.804 196.270 174 193.325 174 C 190.380 174 187.711 172.804 185.779 170.871 C 183.846 168.939 182.650 166.270 182.650 163.325 C 182.650 160.380 183.846 157.711 185.779 155.779 C 187.711 153.846 190.380 152.650 193.325 152.650 Z " transform="matrix(1, 0, 0, 1, -174.35, -113.5)"/>
  <path id="ID0.6938812183216214" fill="#110109" stroke="url(#grad_3)" stroke-width="2" d="M 193.325 152.650 C 196.270 152.650 198.939 153.846 200.871 155.779 C 202.804 157.711 204 160.380 204 163.325 C 204 166.270 202.804 168.939 200.871 170.871 C 198.939 172.804 196.270 174 193.325 174 C 190.380 174 187.711 172.804 185.779 170.871 C 183.846 168.939 182.650 166.270 182.650 163.325 C 182.650 160.380 183.846 157.711 185.779 155.779 C 187.711 153.846 190.380 152.650 193.325 152.650 Z " transform="matrix(1, 0, 0, 1, -156.95, -121.75)"/>
  <path id="ID0.6938812183216214" fill="#110109" stroke="url(#grad_4)" stroke-width="2" d="M 193.325 152.650 C 196.270 152.650 198.939 153.846 200.871 155.779 C 202.804 157.711 204 160.380 204 163.325 C 204 166.270 202.804 168.939 200.871 170.871 C 198.939 172.804 196.270 174 193.325 174 C 190.380 174 187.711 172.804 185.779 170.871 C 183.846 168.939 182.650 166.270 182.650 163.325 C 182.650 160.380 183.846 157.711 185.779 155.779 C 187.711 153.846 190.380 152.650 193.325 152.650 Z " transform="matrix(1, 0, 0, 1, -179.7, -122.75)"/>
  <path id="ID0.6938812183216214" fill="#110109" stroke="url(#grad_5)" stroke-width="2" d="M 193.325 152.650 C 196.270 152.650 198.939 153.846 200.871 155.779 C 202.804 157.711 204 160.380 204 163.325 C 204 166.270 202.804 168.939 200.871 170.871 C 198.939 172.804 196.270 174 193.325 174 C 190.380 174 187.711 172.804 185.779 170.871 C 183.846 168.939 182.650 166.270 182.650 163.325 C 182.650 160.380 183.846 157.711 185.779 155.779 C 187.711 153.846 190.380 152.650 193.325 152.650 Z " transform="matrix(1, 0, 0, 1, -171.95, -132.5)"/>
  <path id="ID0.6938812183216214" fill="#110109" stroke="url(#grad_6)" stroke-width="2" d="M 193.325 152.650 C 196.270 152.650 198.939 153.846 200.871 155.779 C 202.804 157.711 204 160.380 204 163.325 C 204 166.270 202.804 168.939 200.871 170.871 C 198.939 172.804 196.270 174 193.325 174 C 190.380 174 187.711 172.804 185.779 170.871 C 183.846 168.939 182.650 166.270 182.650 163.325 C 182.650 160.380 183.846 157.711 185.779 155.779 C 187.711 153.846 190.380 152.650 193.325 152.650 Z " transform="matrix(1, 0, 0, 1, -162.6, -137.1)"/>
  <g id="ID0.9394640577957034" transform="matrix(1, 0, 0, 1, 0, -7)">
    <path id="ID0.6938812183216214" fill="#110109" stroke="url(#grad_7)" stroke-width="2" d="M 193.325 152.650 C 196.270 152.650 198.939 153.846 200.871 155.779 C 202.804 157.711 204 160.380 204 163.325 C 204 166.270 202.804 168.939 200.871 170.871 C 198.939 172.804 196.270 174 193.325 174 C 190.380 174 187.711 172.804 185.779 170.871 C 183.846 168.939 182.650 166.270 182.650 163.325 C 182.650 160.380 183.846 157.711 185.779 155.779 C 187.711 153.846 190.380 152.650 193.325 152.650 Z " transform="matrix(1, 0, 0, 1, -150.45, -133.35)"/>
    <path id="ID0.9396942704916" fill="#FFFFFF" stroke="none" stroke-linecap="round" d="M 188.250 155.900 C 189.275 155.271 190.549 155.066 191.750 155 C 192.117 154.980 192.894 155.408 192.750 155.650 C 192.394 156.083 191.288 155.960 190.750 156.350 C 189.272 157.425 187.814 158.640 186.650 160 C 185.957 160.809 185.726 162.690 185.300 162.900 C 185.058 163.091 185.056 161.601 185.150 160.900 C 185.278 159.983 185.687 159.087 186.150 158.300 C 186.688 157.385 187.345 156.456 188.250 155.900 Z " transform="matrix(1, 0, 0, 1, -150.45, -133.35)"/>
  </g>
  <g id="ID0.9394640577957034" transform="matrix(1, 0, 0, 1, 0, -7)">
    <path id="ID0.6938812183216214" fill="#110109" stroke="url(#grad_8)" stroke-width="2" d="M 193.325 152.650 C 196.270 152.650 198.939 153.846 200.871 155.779 C 202.804 157.711 204 160.380 204 163.325 C 204 166.270 202.804 168.939 200.871 170.871 C 198.939 172.804 196.270 174 193.325 174 C 190.380 174 187.711 172.804 185.779 170.871 C 183.846 168.939 182.650 166.270 182.650 163.325 C 182.650 160.380 183.846 157.711 185.779 155.779 C 187.711 153.846 190.380 152.650 193.325 152.650 Z " transform="matrix(1, 0, 0, 1, -181, -131)"/>
    <path id="ID0.9396942704916" fill="#FFFFFF" stroke="none" stroke-linecap="round" d="M 188.250 155.900 C 189.275 155.271 190.549 155.066 191.750 155 C 192.117 154.980 192.894 155.408 192.750 155.650 C 192.394 156.083 191.288 155.960 190.750 156.350 C 189.272 157.425 187.814 158.640 186.650 160 C 185.957 160.809 185.726 162.690 185.300 162.900 C 185.058 163.091 185.056 161.601 185.150 160.900 C 185.278 159.983 185.687 159.087 186.150 158.300 C 186.688 157.385 187.345 156.456 188.250 155.900 Z " transform="matrix(1, 0, 0, 1, -181, -131)"/>
  </g>
  <g id="ID0.9394640577957034" transform="matrix(1, 0, 0, 1, 0, -7)">
    <path id="ID0.6938812183216214" fill="#110109" stroke="url(#grad_9)" stroke-width="2" d="M 193.325 152.650 C 196.270 152.650 198.939 153.846 200.871 155.779 C 202.804 157.711 204 160.380 204 163.325 C 204 166.270 202.804 168.939 200.871 170.871 C 198.939 172.804 196.270 174 193.325 174 C 190.380 174 187.711 172.804 185.779 170.871 C 183.846 168.939 182.650 166.270 182.650 163.325 C 182.650 160.380 183.846 157.711 185.779 155.779 C 187.711 153.846 190.380 152.650 193.325 152.650 Z " transform="matrix(1, 0, 0, 1, -168.6, -111.95)"/>
    <path id="ID0.9396942704916" fill="#FFFFFF" stroke="none" stroke-linecap="round" d="M 188.250 155.900 C 189.275 155.271 190.549 155.066 191.750 155 C 192.117 154.980 192.894 155.408 192.750 155.650 C 192.394 156.083 191.288 155.960 190.750 156.350 C 189.272 157.425 187.814 158.640 186.650 160 C 185.957 160.809 185.726 162.690 185.300 162.900 C 185.058 163.091 185.056 161.601 185.150 160.900 C 185.278 159.983 185.687 159.087 186.150 158.300 C 186.688 157.385 187.345 156.456 188.250 155.900 Z " transform="matrix(1, 0, 0, 1, -168.6, -111.95)"/>
  </g>
</svg>