<svg version="1.1" width="64" height="96" viewBox="-1 -1 64 96" xmlns="http://www.w3.org/2000/svg" xmlns:xlink="http://www.w3.org/1999/xlink">
  <!-- Exported by Scratch - http://scratch.mit.edu/ -->
  <path id="ID0.13279230426996946" fill="#FFCCCC" stroke="none" d="M 244.150 146.500 C 248.702 146.500 252.827 148.349 255.814 151.336 C 258.801 154.323 260.650 158.448 260.650 163 C 260.650 167.552 258.801 171.677 255.814 174.664 C 252.827 177.651 248.702 179.500 244.150 179.500 C 239.598 179.500 235.473 177.651 232.486 174.664 C 229.499 171.677 227.650 167.552 227.650 163 C 227.650 158.448 229.499 154.323 232.486 151.336 C 235.473 148.349 239.598 146.500 244.150 146.500 Z " transform="matrix(1, 0, 0, 1, -213.15, -125.25)"/>
  <path id="ID0.6529805855825543" fill="none" stroke="#000000" stroke-width="2" stroke-linecap="round" d="M 231.150 162.900 L 237 164.800 L 243.750 162.900 " transform="matrix(1, 0, 0, 1, -206, -118.3)"/>
  <path id="ID0.3535491735674441" fill="#000000" stroke="none" d="M 226.400 156.250 C 226.828 156.250 227.215 156.424 227.496 156.704 C 227.776 156.985 227.950 157.372 227.950 157.800 C 227.950 158.228 227.776 158.615 227.496 158.896 C 227.215 159.176 226.828 159.350 226.400 159.350 C 225.972 159.350 225.585 159.176 225.304 158.896 C 225.024 158.615 224.850 158.228 224.850 157.800 C 224.850 157.372 225.024 156.985 225.304 156.704 C 225.585 156.424 225.972 156.250 226.400 156.250 Z " transform="matrix(1, 0, 0, 1, -189.35, -122)"/>
  <path id="ID0.3535491735674441" fill="#000000" stroke="none" d="M 226.400 156.250 C 226.828 156.250 227.215 156.424 227.496 156.704 C 227.776 156.985 227.950 157.372 227.950 157.800 C 227.950 158.228 227.776 158.615 227.496 158.896 C 227.215 159.176 226.828 159.350 226.400 159.350 C 225.972 159.350 225.585 159.176 225.304 158.896 C 225.024 158.615 224.850 158.228 224.850 157.800 C 224.850 157.372 225.024 156.985 225.304 156.704 C 225.585 156.424 225.972 156.250 226.400 156.250 Z " transform="matrix(1, 0, 0, 1, -201.35, -121.95)"/>
  <path id="ID0.7584166117012501" fill="#AC6101" stroke="none" stroke-linecap="round" d="M 315.650 158.750 L 322.150 160 L 328.300 160 L 334.300 159.300 L 343.400 193.700 L 308.900 194.200 L 315.650 158.750 Z " transform="matrix(1, 0, 0, 1, -295.3, -158.3)"/>
  <path id="ID0.12322861887514591" fill="#A05B03" stroke="none" d="M 212.150 153.150 L 274.650 153.150 L 274.650 157 L 212.150 157 L 212.150 153.150 Z " transform="matrix(1, 0, 0, 1, -211.5, -121)"/>
  <path id="ID0.3286435236223042" fill="#A05B03" stroke="none" stroke-linecap="round" d="M 243.750 172.150 L 261.750 172.150 L 264.250 172.650 L 266.400 175.150 L 266.650 222 L 243.250 221.650 L 243.750 172.150 Z " transform="matrix(1, 0, 0, 1, -213.65, -127.5)"/>
  <path id="ID0.22408381616696715" fill="#AC6101" stroke="none" stroke-linecap="round" d="M 221 170.350 L 221.200 168.100 L 223.450 165.700 L 252.300 165.650 L 252.600 215.450 L 221.450 215.200 L 221 170.350 Z " transform="matrix(1.0754414796829224, 0, 0, 1, -224.05, -121)"/>
  <path id="ID0.5399172687903047" fill="#A05B03" stroke="none" stroke-linecap="round" d="M 196.800 174.100 L 197.450 171.900 L 198.300 170.950 L 199.650 170.200 L 209.250 189.100 L 211.250 190.300 L 213.400 190.100 L 228.750 186.350 L 229.900 190.350 L 208.100 194.650 L 206.300 194.300 L 204.900 192.550 L 196.800 174.100 Z " transform="matrix(0.8457529544830322, 0.5335747003555298, -0.5335747003555298, 0.8457529544830322, -61.5, -205.85)"/>
  <path id="ID0.21790830744430423" fill="none" stroke="#000000" stroke-width="2" stroke-linecap="round" d="M 235.350 196.150 L 240.350 188.650 " transform="matrix(1, 0, 0, 1, -206, -121)"/>
  <path id="ID0.9887145846150815" fill="#FFFFFF" stroke="#000000" stroke-width="2" d="M 244.100 178.800 C 245.548 178.800 246.861 179.360 247.811 180.265 C 248.762 181.171 249.350 182.421 249.350 183.800 C 249.350 185.179 248.762 186.429 247.811 187.335 C 246.861 188.240 245.548 188.800 244.100 188.800 C 242.652 188.800 241.339 188.240 240.389 187.335 C 239.438 186.429 238.850 185.179 238.850 183.800 C 238.850 182.421 239.438 181.171 240.389 180.265 C 241.339 179.360 242.652 178.800 244.100 178.800 Z " transform="matrix(1, 0, 0, 1, -206, -121)"/>
</svg>