<svg version="1.1" width="125" height="97" viewBox="-1 -1 125 97" xmlns="http://www.w3.org/2000/svg" xmlns:xlink="http://www.w3.org/1999/xlink">
  <defs>
    <radialGradient id="grad_1" cx="0.0706" cy="0.5139" r="1.20822">
      <stop offset="0" stop-color="#4D052E" stop-opacity="1"/>
      <stop offset="1" stop-color="#110109" stop-opacity="1"/>
    </radialGradient>
    <radialGradient id="grad_2" cx="0.0706" cy="0.5139" r="1.20822">
      <stop offset="0" stop-color="#4D052E" stop-opacity="1"/>
      <stop offset="1" stop-color="#110109" stop-opacity="1"/>
    </radialGradient>
    <radialGradient id="grad_3" cx="0.0706" cy="0.5139" r="1.20822">
      <stop offset="0" stop-color="#4D052E" stop-opacity="1"/>
      <stop offset="1" stop-color="#110109" stop-opacity="1"/>
    </radialGradient>
    <radialGradient id="grad_4" cx="0.0706" cy="0.5139" r="1.20822">
      <stop offset="0" stop-color="#4D052E" stop-opacity="1"/>
      <stop offset="1" stop-color="#110109" stop-opacity="1"/>
    </radialGradient>
    <radialGradient id="grad_5" cx="0.0706" cy="0.5139" r="1.20822">
      <stop offset="0" stop-color="#4D052E" stop-opacity="1"/>
      <stop offset="1" stop-color="#110109" stop-opacity="1"/>
    </radialGradient>
    <radialGradient id="grad_6" cx="0.0706" cy="0.5139" r="1.20822">
      <stop offset="0" stop-color="#4D052E" stop-opacity="1"/>
      <stop offset="1" stop-color="#110109" stop-opacity="1"/>
    </radialGradient>
    <radialGradient id="grad_7" cx="0.0706" cy="0.5139" r="1.20822">
      <stop offset="0" stop-color="#4D052E" stop-opacity="1"/>
      <stop offset="1" stop-color="#110109" stop-opacity="1"/>
    </radialGradient>
    <radialGradient id="grad_8" cx="0.0706" cy="0.5139" r="1.20822">
      <stop offset="0" stop-color="#4D052E" stop-opacity="1"/>
      <stop offset="1" stop-color="#110109" stop-opacity="1"/>
    </radialGradient>
    <radialGradient id="grad_9" cx="0.0706" cy="0.5139" r="1.20822">
      <stop offset="0" stop-color="#4D052E" stop-opacity="1"/>
      <stop offset="1" stop-color="#110109" stop-opacity="1"/>
    </radialGradient>
    <radialGradient id="grad_10" cx="0.0706" cy="0.5139" r="1.20822">
      <stop offset="0" stop-color="#4D052E" stop-opacity="1"/>
      <stop offset="1" stop-color="#110109" stop-opacity="1"/>
    </radialGradient>
    <radialGradient id="grad_11" cx="0.0706" cy="0.5139" r="1.20822">
      <stop offset="0" stop-color="#4D052E" stop-opacity="1"/>
      <stop offset="1" stop-color="#110109" stop-opacity="1"/>
    </radialGradient>
    <radialGradient id="grad_12" cx="0.0706" cy="0.5139" r="1.20822">
      <stop offset="0" stop-color="#4D052E" stop-opacity="1"/>
      <stop offset="1" stop-color="#110109" stop-opacity="1"/>
    </radialGradient>
    <radialGradient id="grad_13" cx="0.0706" cy="0.5139" r="1.20822">
      <stop offset="0" stop-color="#4D052E" stop-opacity="1"/>
      <stop offset="1" stop-color="#110109" stop-opacity="1"/>
    </radialGradient>
    <radialGradient id="grad_14" cx="0.0706" cy="0.5139" r="1.20822">
      <stop offset="0" stop-color="#4D052E" stop-opacity="1"/>
      <stop offset="1" stop-color="#110109" stop-opacity="1"/>
    </radialGradient>
    <radialGradient id="grad_15" cx="0.0706" cy="0.5139" r="1.20822">
      <stop offset="0" stop-color="#4D052E" stop-opacity="1"/>
      <stop offset="1" stop-color="#110109" stop-opacity="1"/>
    </radialGradient>
    <radialGradient id="grad_16" cx="0.0706" cy="0.5139" r="1.20822">
      <stop offset="0" stop-color="#4D052E" stop-opacity="1"/>
      <stop offset="1" stop-color="#110109" stop-opacity="1"/>
    </radialGradient>
    <radialGradient id="grad_17" cx="0.0706" cy="0.5139" r="1.20822">
      <stop offset="0" stop-color="#4D052E" stop-opacity="1"/>
      <stop offset="1" stop-color="#110109" stop-opacity="1"/>
    </radialGradient>
    <radialGradient id="grad_18" cx="0.0706" cy="0.5139" r="1.20822">
      <stop offset="0" stop-color="#4D052E" stop-opacity="1"/>
      <stop offset="1" stop-color="#110109" stop-opacity="1"/>
    </radialGradient>
    <radialGradient id="grad_19" cx="0.0706" cy="0.5139" r="1.20822">
      <stop offset="0" stop-color="#4D052E" stop-opacity="1"/>
      <stop offset="1" stop-color="#110109" stop-opacity="1"/>
    </radialGradient>
    <radialGradient id="grad_20" cx="0.0706" cy="0.5139" r="1.20822">
      <stop offset="0" stop-color="#4D052E" stop-opacity="1"/>
      <stop offset="1" stop-color="#110109" stop-opacity="1"/>
    </radialGradient>
    <radialGradient id="grad_21" cx="0.0706" cy="0.5139" r="1.20822">
      <stop offset="0" stop-color="#4D052E" stop-opacity="1"/>
      <stop offset="1" stop-color="#110109" stop-opacity="1"/>
    </radialGradient>
    <radialGradient id="grad_22" cx="0.0706" cy="0.5139" r="1.20822">
      <stop offset="0" stop-color="#4D052E" stop-opacity="1"/>
      <stop offset="1" stop-color="#110109" stop-opacity="1"/>
    </radialGradient>
    <radialGradient id="grad_23" cx="0.0706" cy="0.5139" r="1.20822">
      <stop offset="0" stop-color="#4D052E" stop-opacity="1"/>
      <stop offset="1" stop-color="#110109" stop-opacity="1"/>
    </radialGradient>
    <radialGradient id="grad_24" cx="0.0706" cy="0.5139" r="1.20822">
      <stop offset="0" stop-color="#4D052E" stop-opacity="1"/>
      <stop offset="1" stop-color="#110109" stop-opacity="1"/>
    </radialGradient>
    <radialGradient id="grad_25" cx="0.0706" cy="0.5139" r="1.20822">
      <stop offset="0" stop-color="#4D052E" stop-opacity="1"/>
      <stop offset="1" stop-color="#110109" stop-opacity="1"/>
    </radialGradient>
    <radialGradient id="grad_26" cx="0.0706" cy="0.5139" r="1.20822">
      <stop offset="0" stop-color="#4D052E" stop-opacity="1"/>
      <stop offset="1" stop-color="#110109" stop-opacity="1"/>
    </radialGradient>
    <radialGradient id="grad_27" cx="0.0706" cy="0.5139" r="1.20822">
      <stop offset="0" stop-color="#4D052E" stop-opacity="1"/>
      <stop offset="1" stop-color="#110109" stop-opacity="1"/>
    </radialGradient>
    <radialGradient id="grad_28" cx="0.0706" cy="0.5139" r="1.20822">
      <stop offset="0" stop-color="#4D052E" stop-opacity="1"/>
      <stop offset="1" stop-color="#110109" stop-opacity="1"/>
    </radialGradient>
    <radialGradient id="grad_29" cx="0.0706" cy="0.5139" r="1.20822">
      <stop offset="0" stop-color="#4D052E" stop-opacity="1"/>
      <stop offset="1" stop-color="#110109" stop-opacity="1"/>
    </radialGradient>
    <radialGradient id="grad_30" cx="0.0706" cy="0.5139" r="1.20822">
      <stop offset="0" stop-color="#4D052E" stop-opacity="1"/>
      <stop offset="1" stop-color="#110109" stop-opacity="1"/>
    </radialGradient>
    <radialGradient id="grad_31" cx="0.0706" cy="0.5139" r="1.20822">
      <stop offset="0" stop-color="#4D052E" stop-opacity="1"/>
      <stop offset="1" stop-color="#110109" stop-opacity="1"/>
    </radialGradient>
    <radialGradient id="grad_32" cx="0.0706" cy="0.5139" r="1.20822">
      <stop offset="0" stop-color="#4D052E" stop-opacity="1"/>
      <stop offset="1" stop-color="#110109" stop-opacity="1"/>
    </radialGradient>
    <radialGradient id="grad_33" cx="0.0706" cy="0.5139" r="1.20822">
      <stop offset="0" stop-color="#4D052E" stop-opacity="1"/>
      <stop offset="1" stop-color="#110109" stop-opacity="1"/>
    </radialGradient>
    <radialGradient id="grad_34" cx="0.0706" cy="0.5139" r="1.20822">
      <stop offset="0" stop-color="#4D052E" stop-opacity="1"/>
      <stop offset="1" stop-color="#110109" stop-opacity="1"/>
    </radialGradient>
    <radialGradient id="grad_35" cx="0.0706" cy="0.5139" r="1.20822">
      <stop offset="0" stop-color="#4D052E" stop-opacity="1"/>
      <stop offset="1" stop-color="#110109" stop-opacity="1"/>
    </radialGradient>
    <radialGradient id="grad_36" cx="0.0706" cy="0.5139" r="1.20822">
      <stop offset="0" stop-color="#4D052E" stop-opacity="1"/>
      <stop offset="1" stop-color="#110109" stop-opacity="1"/>
    </radialGradient>
    <radialGradient id="grad_37" cx="0.0706" cy="0.5139" r="1.20822">
      <stop offset="0" stop-color="#4D052E" stop-opacity="1"/>
      <stop offset="1" stop-color="#110109" stop-opacity="1"/>
    </radialGradient>
    <radialGradient id="grad_38" cx="0.0706" cy="0.5139" r="1.20822">
      <stop offset="0" stop-color="#4D052E" stop-opacity="1"/>
      <stop offset="1" stop-color="#110109" stop-opacity="1"/>
    </radialGradient>
    <radialGradient id="grad_39" cx="0.0706" cy="0.5139" r="1.20822">
      <stop offset="0" stop-color="#4D052E" stop-opacity="1"/>
      <stop offset="1" stop-color="#110109" stop-opacity="1"/>
    </radialGradient>
    <radialGradient id="grad_40" cx="0.0706" cy="0.5139" r="1.20822">
      <stop offset="0" stop-color="#4D052E" stop-opacity="1"/>
      <stop offset="1" stop-color="#110109" stop-opacity="1"/>
    </radialGradient>
    <radialGradient id="grad_41" cx="0.0706" cy="0.5139" r="1.20822">
      <stop offset="0" stop-color="#4D052E" stop-opacity="1"/>
      <stop offset="1" stop-color="#110109" stop-opacity="1"/>
    </radialGradient>
    <radialGradient id="grad_42" cx="0.0706" cy="0.5139" r="1.20822">
      <stop offset="0" stop-color="#4D052E" stop-opacity="1"/>
      <stop offset="1" stop-color="#110109" stop-opacity="1"/>
    </radialGradient>
    <radialGradient id="grad_43" cx="0.0706" cy="0.5139" r="1.20822">
      <stop offset="0" stop-color="#4D052E" stop-opacity="1"/>
      <stop offset="1" stop-color="#110109" stop-opacity="1"/>
    </radialGradient>
    <radialGradient id="grad_44" cx="0.0706" cy="0.5139" r="1.20822">
      <stop offset="0" stop-color="#4D052E" stop-opacity="1"/>
      <stop offset="1" stop-color="#110109" stop-opacity="1"/>
    </radialGradient>
    <radialGradient id="grad_45" cx="0.0706" cy="0.5139" r="1.20822">
      <stop offset="0" stop-color="#4D052E" stop-opacity="1"/>
      <stop offset="1" stop-color="#110109" stop-opacity="1"/>
    </radialGradient>
    <radialGradient id="grad_46" cx="0.0706" cy="0.5139" r="1.20822">
      <stop offset="0" stop-color="#4D052E" stop-opacity="1"/>
      <stop offset="1" stop-color="#110109" stop-opacity="1"/>
    </radialGradient>
    <radialGradient id="grad_47" cx="0.0706" cy="0.5139" r="1.20822">
      <stop offset="0" stop-color="#4D052E" stop-opacity="1"/>
      <stop offset="1" stop-color="#110109" stop-opacity="1"/>
    </radialGradient>
    <radialGradient id="grad_48" cx="0.0706" cy="0.5139" r="1.20822">
      <stop offset="0" stop-color="#4D052E" stop-opacity="1"/>
      <stop offset="1" stop-color="#110109" stop-opacity="1"/>
    </radialGradient>
    <radialGradient id="grad_49" cx="0.0706" cy="0.5139" r="1.20822">
      <stop offset="0" stop-color="#4D052E" stop-opacity="1"/>
      <stop offset="1" stop-color="#110109" stop-opacity="1"/>
    </radialGradient>
    <radialGradient id="grad_50" cx="0.0706" cy="0.5139" r="1.20822">
      <stop offset="0" stop-color="#4D052E" stop-opacity="1"/>
      <stop offset="1" stop-color="#110109" stop-opacity="1"/>
    </radialGradient>
    <radialGradient id="grad_51" cx="0.0706" cy="0.5139" r="1.20822">
      <stop offset="0" stop-color="#4D052E" stop-opacity="1"/>
      <stop offset="1" stop-color="#110109" stop-opacity="1"/>
    </radialGradient>
    <radialGradient id="grad_52" cx="0.0706" cy="0.5139" r="1.20822">
      <stop offset="0" stop-color="#4D052E" stop-opacity="1"/>
      <stop offset="1" stop-color="#110109" stop-opacity="1"/>
    </radialGradient>
    <radialGradient id="grad_53" cx="0.0706" cy="0.5139" r="1.20822">
      <stop offset="0" stop-color="#4D052E" stop-opacity="1"/>
      <stop offset="1" stop-color="#110109" stop-opacity="1"/>
    </radialGradient>
    <radialGradient id="grad_54" cx="0.0706" cy="0.5139" r="1.20822">
      <stop offset="0" stop-color="#4D052E" stop-opacity="1"/>
      <stop offset="1" stop-color="#110109" stop-opacity="1"/>
    </radialGradient>
    <radialGradient id="grad_55" cx="0.0706" cy="0.5139" r="1.20822">
      <stop offset="0" stop-color="#4D052E" stop-opacity="1"/>
      <stop offset="1" stop-color="#110109" stop-opacity="1"/>
    </radialGradient>
    <radialGradient id="grad_56" cx="0.0706" cy="0.5139" r="1.20822">
      <stop offset="0" stop-color="#4D052E" stop-opacity="1"/>
      <stop offset="1" stop-color="#110109" stop-opacity="1"/>
    </radialGradient>
    <radialGradient id="grad_57" cx="0.0706" cy="0.5139" r="1.20822">
      <stop offset="0" stop-color="#4D052E" stop-opacity="1"/>
      <stop offset="1" stop-color="#110109" stop-opacity="1"/>
    </radialGradient>
    <radialGradient id="grad_58" cx="0.0706" cy="0.5139" r="1.20822">
      <stop offset="0" stop-color="#4D052E" stop-opacity="1"/>
      <stop offset="1" stop-color="#110109" stop-opacity="1"/>
    </radialGradient>
    <radialGradient id="grad_59" cx="0.0706" cy="0.5139" r="1.20822">
      <stop offset="0" stop-color="#4D052E" stop-opacity="1"/>
      <stop offset="1" stop-color="#110109" stop-opacity="1"/>
    </radialGradient>
    <radialGradient id="grad_60" cx="0.0706" cy="0.5139" r="1.20822">
      <stop offset="0" stop-color="#4D052E" stop-opacity="1"/>
      <stop offset="1" stop-color="#110109" stop-opacity="1"/>
    </radialGradient>
    <radialGradient id="grad_61" cx="0.0706" cy="0.5139" r="1.20822">
      <stop offset="0" stop-color="#4D052E" stop-opacity="1"/>
      <stop offset="1" stop-color="#110109" stop-opacity="1"/>
    </radialGradient>
    <radialGradient id="grad_62" cx="0.0706" cy="0.5139" r="1.20822">
      <stop offset="0" stop-color="#4D052E" stop-opacity="1"/>
      <stop offset="1" stop-color="#110109" stop-opacity="1"/>
    </radialGradient>
    <radialGradient id="grad_63" cx="0.0706" cy="0.5139" r="1.20822">
      <stop offset="0" stop-color="#4D052E" stop-opacity="1"/>
      <stop offset="1" stop-color="#110109" stop-opacity="1"/>
    </radialGradient>
    <radialGradient id="grad_64" cx="0.0706" cy="0.5139" r="1.20822">
      <stop offset="0" stop-color="#4D052E" stop-opacity="1"/>
      <stop offset="1" stop-color="#110109" stop-opacity="1"/>
    </radialGradient>
    <radialGradient id="grad_65" cx="0.0706" cy="0.5139" r="1.20822">
      <stop offset="0" stop-color="#4D052E" stop-opacity="1"/>
      <stop offset="1" stop-color="#110109" stop-opacity="1"/>
    </radialGradient>
    <radialGradient id="grad_66" cx="0.0706" cy="0.5139" r="1.20822">
      <stop offset="0" stop-color="#4D052E" stop-opacity="1"/>
      <stop offset="1" stop-color="#110109" stop-opacity="1"/>
    </radialGradient>
    <radialGradient id="grad_67" cx="0.0706" cy="0.5139" r="1.20822">
      <stop offset="0" stop-color="#4D052E" stop-opacity="1"/>
      <stop offset="1" stop-color="#110109" stop-opacity="1"/>
    </radialGradient>
    <radialGradient id="grad_68" cx="0.0706" cy="0.5139" r="1.20822">
      <stop offset="0" stop-color="#4D052E" stop-opacity="1"/>
      <stop offset="1" stop-color="#110109" stop-opacity="1"/>
    </radialGradient>
    <radialGradient id="grad_69" cx="0.0706" cy="0.5139" r="1.20822">
      <stop offset="0" stop-color="#4D052E" stop-opacity="1"/>
      <stop offset="1" stop-color="#110109" stop-opacity="1"/>
    </radialGradient>
    <radialGradient id="grad_70" cx="0.0706" cy="0.5139" r="1.20822">
      <stop offset="0" stop-color="#4D052E" stop-opacity="1"/>
      <stop offset="1" stop-color="#110109" stop-opacity="1"/>
    </radialGradient>
    <radialGradient id="grad_71" cx="0.0706" cy="0.5139" r="1.20822">
      <stop offset="0" stop-color="#4D052E" stop-opacity="1"/>
      <stop offset="1" stop-color="#110109" stop-opacity="1"/>
    </radialGradient>
    <radialGradient id="grad_72" cx="0.0706" cy="0.5139" r="1.20822">
      <stop offset="0" stop-color="#4D052E" stop-opacity="1"/>
      <stop offset="1" stop-color="#110109" stop-opacity="1"/>
    </radialGradient>
  </defs>
  <!-- Exported by Scratch - http://scratch.mit.edu/ -->
  <path id="ID0.4909046455286443" fill="#774300" stroke="none" stroke-linecap="round" d="M 195.750 272.300 L 202.750 272.150 L 201.750 285.300 L 202.250 288.300 L 204.250 297.300 L 193.750 297.150 L 195.400 289.150 L 195.900 285.800 L 195.750 272.300 Z " transform="matrix(1, 0, 0, 1, -142, -201.9)"/>
  <path id="ID0.5586020625196397" fill="#018E2D" stroke="none" d="M 253.975 172.650 C 266.480 172.650 277.811 177.729 286.016 185.934 C 294.221 194.139 299.300 205.470 299.300 217.975 C 299.300 230.480 294.221 241.811 286.016 250.016 C 277.811 258.221 266.480 263.300 253.975 263.300 C 241.470 263.300 230.139 258.221 221.934 250.016 C 213.729 241.811 208.650 230.480 208.650 217.975 C 208.650 205.470 213.729 194.139 221.934 185.934 C 230.139 177.729 241.470 172.650 253.975 172.650 Z " transform="matrix(0.41864314675331116, 0, 0, 0.41864314675331116, -87.05, -59)"/>
  <path id="ID0.5586020625196397" fill="#018E2D" stroke="none" d="M 253.975 172.650 C 266.480 172.650 277.811 177.729 286.016 185.934 C 294.221 194.139 299.300 205.470 299.300 217.975 C 299.300 230.480 294.221 241.811 286.016 250.016 C 277.811 258.221 266.480 263.300 253.975 263.300 C 241.470 263.300 230.139 258.221 221.934 250.016 C 213.729 241.811 208.650 230.480 208.650 217.975 C 208.650 205.470 213.729 194.139 221.934 185.934 C 230.139 177.729 241.470 172.650 253.975 172.650 Z " transform="matrix(0.41864314675331116, 0, 0, 0.41864314675331116, -67.2, -71.65)"/>
  <path id="ID0.5586020625196397" fill="#018E2D" stroke="none" d="M 253.975 172.650 C 266.480 172.650 277.811 177.729 286.016 185.934 C 294.221 194.139 299.300 205.470 299.300 217.975 C 299.300 230.480 294.221 241.811 286.016 250.016 C 277.811 258.221 266.480 263.300 253.975 263.300 C 241.470 263.300 230.139 258.221 221.934 250.016 C 213.729 241.811 208.650 230.480 208.650 217.975 C 208.650 205.470 213.729 194.139 221.934 185.934 C 230.139 177.729 241.470 172.650 253.975 172.650 Z " transform="matrix(0.41864314675331116, 0, 0, 0.41864314675331116, -43.05, -72.1)"/>
  <path id="ID0.5586020625196397" fill="#018E2D" stroke="none" d="M 253.975 172.650 C 266.480 172.650 277.811 177.729 286.016 185.934 C 294.221 194.139 299.300 205.470 299.300 217.975 C 299.300 230.480 294.221 241.811 286.016 250.016 C 277.811 258.221 266.480 263.300 253.975 263.300 C 241.470 263.300 230.139 258.221 221.934 250.016 C 213.729 241.811 208.650 230.480 208.650 217.975 C 208.650 205.470 213.729 194.139 221.934 185.934 C 230.139 177.729 241.470 172.650 253.975 172.650 Z " transform="matrix(0.41864314675331116, 0, 0, 0.41864314675331116, -55.45, -50.4)"/>
  <path id="ID0.5586020625196397" fill="#018E2D" stroke="none" d="M 253.975 172.650 C 266.480 172.650 277.811 177.729 286.016 185.934 C 294.221 194.139 299.300 205.470 299.300 217.975 C 299.300 230.480 294.221 241.811 286.016 250.016 C 277.811 258.221 266.480 263.300 253.975 263.300 C 241.470 263.300 230.139 258.221 221.934 250.016 C 213.729 241.811 208.650 230.480 208.650 217.975 C 208.650 205.470 213.729 194.139 221.934 185.934 C 230.139 177.729 241.470 172.650 253.975 172.650 Z " transform="matrix(0.41864314675331116, 0, 0, 0.41864314675331116, -25, -57.8)"/>
  <path id="ID0.5586020625196397" fill="#018E2D" stroke="none" d="M 253.975 172.650 C 266.480 172.650 277.811 177.729 286.016 185.934 C 294.221 194.139 299.300 205.470 299.300 217.975 C 299.300 230.480 294.221 241.811 286.016 250.016 C 277.811 258.221 266.480 263.300 253.975 263.300 C 241.470 263.300 230.139 258.221 221.934 250.016 C 213.729 241.811 208.650 230.480 208.650 217.975 C 208.650 205.470 213.729 194.139 221.934 185.934 C 230.139 177.729 241.470 172.650 253.975 172.650 Z " transform="matrix(0.41864314675331116, 0, 0, 0.41864314675331116, -15.5, -65.65)"/>
  <path id="ID0.5586020625196397" fill="#018E2D" stroke="none" d="M 253.975 172.650 C 266.480 172.650 277.811 177.729 286.016 185.934 C 294.221 194.139 299.300 205.470 299.300 217.975 C 299.300 230.480 294.221 241.811 286.016 250.016 C 277.811 258.221 266.480 263.300 253.975 263.300 C 241.470 263.300 230.139 258.221 221.934 250.016 C 213.729 241.811 208.650 230.480 208.650 217.975 C 208.650 205.470 213.729 194.139 221.934 185.934 C 230.139 177.729 241.470 172.650 253.975 172.650 Z " transform="matrix(0.41864314675331116, 0, 0, 0.41864314675331116, -1.55, -45.4)"/>
  <path id="ID0.5586020625196397" fill="#018E2D" stroke="none" d="M 253.975 172.650 C 266.480 172.650 277.811 177.729 286.016 185.934 C 294.221 194.139 299.300 205.470 299.300 217.975 C 299.300 230.480 294.221 241.811 286.016 250.016 C 277.811 258.221 266.480 263.300 253.975 263.300 C 241.470 263.300 230.139 258.221 221.934 250.016 C 213.729 241.811 208.650 230.480 208.650 217.975 C 208.650 205.470 213.729 194.139 221.934 185.934 C 230.139 177.729 241.470 172.650 253.975 172.650 Z " transform="matrix(0.41864314675331116, 0, 0, 0.41864314675331116, -31.45, -42.4)"/>
  <path id="ID0.5586020625196397" fill="#018E2D" stroke="none" d="M 253.975 172.650 C 266.480 172.650 277.811 177.729 286.016 185.934 C 294.221 194.139 299.300 205.470 299.300 217.975 C 299.300 230.480 294.221 241.811 286.016 250.016 C 277.811 258.221 266.480 263.300 253.975 263.300 C 241.470 263.300 230.139 258.221 221.934 250.016 C 213.729 241.811 208.650 230.480 208.650 217.975 C 208.650 205.470 213.729 194.139 221.934 185.934 C 230.139 177.729 241.470 172.650 253.975 172.650 Z " transform="matrix(0.41864314675331116, 0, 0, 0.41864314675331116, -79.05, -33.55)"/>
  <path id="ID0.5586020625196397" fill="#018E2D" stroke="none" d="M 253.975 172.650 C 266.480 172.650 277.811 177.729 286.016 185.934 C 294.221 194.139 299.300 205.470 299.300 217.975 C 299.300 230.480 294.221 241.811 286.016 250.016 C 277.811 258.221 266.480 263.300 253.975 263.300 C 241.470 263.300 230.139 258.221 221.934 250.016 C 213.729 241.811 208.650 230.480 208.650 217.975 C 208.650 205.470 213.729 194.139 221.934 185.934 C 230.139 177.729 241.470 172.650 253.975 172.650 Z " transform="matrix(0.41864314675331116, 0, 0, 0.41864314675331116, -49.2, -34)"/>
  <path id="ID0.5586020625196397" fill="#018E2D" stroke="none" d="M 253.975 172.650 C 266.480 172.650 277.811 177.729 286.016 185.934 C 294.221 194.139 299.300 205.470 299.300 217.975 C 299.300 230.480 294.221 241.811 286.016 250.016 C 277.811 258.221 266.480 263.300 253.975 263.300 C 241.470 263.300 230.139 258.221 221.934 250.016 C 213.729 241.811 208.650 230.480 208.650 217.975 C 208.650 205.470 213.729 194.139 221.934 185.934 C 230.139 177.729 241.470 172.650 253.975 172.650 Z " transform="matrix(0.41864314675331116, 0, 0, 0.41864314675331116, -21.25, -34.15)"/>
  <g id="ID0.17346098693087697">
    <g id="ID0.29466908797621727">
      <path id="ID0.05463147349655628" fill="#007124" stroke="none" stroke-linecap="round" d="M 199.100 136.150 L 199.650 136.150 L 200.500 136.450 L 201.300 140.600 L 201.750 141.750 L 202.650 142.300 L 203.050 142.800 L 202.800 143.800 L 199.150 143.800 L 199.100 136.150 Z " transform="matrix(0.321837842464447, -0.03964144363999367, 0.06890060007572174, 0.559384822845459, -46.7, -49.8)"/>
      <path id="ID0.05463147349655628" fill="#007124" stroke="none" stroke-linecap="round" d="M 199.100 136.150 L 199.650 136.150 L 200.500 136.450 L 201.300 140.600 L 201.750 141.750 L 202.650 142.300 L 203.050 142.800 L 202.800 143.800 L 199.150 143.800 L 199.100 136.150 Z " transform="matrix(-0.3218378722667694, 0.039641447365283966, 0.06890060007572174, 0.559384822845459, 81.45, -65.6)"/>
    </g>
    <path id="ID0.6938812183216214" fill="#110109" stroke="url(#grad_1)" stroke-width="2" d="M 193.325 152.650 C 196.270 152.650 198.939 153.846 200.871 155.779 C 202.804 157.711 204 160.380 204 163.325 C 204 166.270 202.804 168.939 200.871 170.871 C 198.939 172.804 196.270 174 193.325 174 C 190.380 174 187.711 172.804 185.779 170.871 C 183.846 168.939 182.650 166.270 182.650 163.325 C 182.650 160.380 183.846 157.711 185.779 155.779 C 187.711 153.846 190.380 152.650 193.325 152.650 Z " transform="matrix(0.2517606019973755, 0, 0, 0.2517606019973755, -21.4, -8.2)"/>
    <path id="ID0.6938812183216214" fill="#110109" stroke="url(#grad_2)" stroke-width="2" d="M 193.325 152.650 C 196.270 152.650 198.939 153.846 200.871 155.779 C 202.804 157.711 204 160.380 204 163.325 C 204 166.270 202.804 168.939 200.871 170.871 C 198.939 172.804 196.270 174 193.325 174 C 190.380 174 187.711 172.804 185.779 170.871 C 183.846 168.939 182.650 166.270 182.650 163.325 C 182.650 160.380 183.846 157.711 185.779 155.779 C 187.711 153.846 190.380 152.650 193.325 152.650 Z " transform="matrix(0.2517606019973755, 0, 0, 0.2517606019973755, -23.8, -10.4)"/>
    <path id="ID0.6938812183216214" fill="#110109" stroke="url(#grad_3)" stroke-width="2" d="M 193.325 152.650 C 196.270 152.650 198.939 153.846 200.871 155.779 C 202.804 157.711 204 160.380 204 163.325 C 204 166.270 202.804 168.939 200.871 170.871 C 198.939 172.804 196.270 174 193.325 174 C 190.380 174 187.711 172.804 185.779 170.871 C 183.846 168.939 182.650 166.270 182.650 163.325 C 182.650 160.380 183.846 157.711 185.779 155.779 C 187.711 153.846 190.380 152.650 193.325 152.650 Z " transform="matrix(0.2517606019973755, 0, 0, 0.2517606019973755, -19.45, -12.45)"/>
    <path id="ID0.6938812183216214" fill="#110109" stroke="url(#grad_4)" stroke-width="2" d="M 193.325 152.650 C 196.270 152.650 198.939 153.846 200.871 155.779 C 202.804 157.711 204 160.380 204 163.325 C 204 166.270 202.804 168.939 200.871 170.871 C 198.939 172.804 196.270 174 193.325 174 C 190.380 174 187.711 172.804 185.779 170.871 C 183.846 168.939 182.650 166.270 182.650 163.325 C 182.650 160.380 183.846 157.711 185.779 155.779 C 187.711 153.846 190.380 152.650 193.325 152.650 Z " transform="matrix(0.2517606019973755, 0, 0, 0.2517606019973755, -25.1, -12.7)"/>
    <path id="ID0.6938812183216214" fill="#110109" stroke="url(#grad_5)" stroke-width="2" d="M 193.325 152.650 C 196.270 152.650 198.939 153.846 200.871 155.779 C 202.804 157.711 204 160.380 204 163.325 C 204 166.270 202.804 168.939 200.871 170.871 C 198.939 172.804 196.270 174 193.325 174 C 190.380 174 187.711 172.804 185.779 170.871 C 183.846 168.939 182.650 166.270 182.650 163.325 C 182.650 160.380 183.846 157.711 185.779 155.779 C 187.711 153.846 190.380 152.650 193.325 152.650 Z " transform="matrix(0.2517606019973755, 0, 0, 0.2517606019973755, -23.2, -15.15)"/>
    <path id="ID0.6938812183216214" fill="#110109" stroke="url(#grad_6)" stroke-width="2" d="M 193.325 152.650 C 196.270 152.650 198.939 153.846 200.871 155.779 C 202.804 157.711 204 160.380 204 163.325 C 204 166.270 202.804 168.939 200.871 170.871 C 198.939 172.804 196.270 174 193.325 174 C 190.380 174 187.711 172.804 185.779 170.871 C 183.846 168.939 182.650 166.270 182.650 163.325 C 182.650 160.380 183.846 157.711 185.779 155.779 C 187.711 153.846 190.380 152.650 193.325 152.650 Z " transform="matrix(0.2517606019973755, 0, 0, 0.2517606019973755, -20.85, -16.3)"/>
    <g id="ID0.9394640577957034">
      <path id="ID0.6938812183216214" fill="#110109" stroke="url(#grad_7)" stroke-width="2" d="M 193.325 152.650 C 196.270 152.650 198.939 153.846 200.871 155.779 C 202.804 157.711 204 160.380 204 163.325 C 204 166.270 202.804 168.939 200.871 170.871 C 198.939 172.804 196.270 174 193.325 174 C 190.380 174 187.711 172.804 185.779 170.871 C 183.846 168.939 182.650 166.270 182.650 163.325 C 182.650 160.380 183.846 157.711 185.779 155.779 C 187.711 153.846 190.380 152.650 193.325 152.650 Z " transform="matrix(0.2517606019973755, 0, 0, 0.2517606019973755, -17.75, -17.1)"/>
      <path id="ID0.9396942704916" fill="#FFFFFF" stroke="none" stroke-linecap="round" d="M 188.250 155.900 C 189.275 155.271 190.549 155.066 191.750 155 C 192.117 154.980 192.894 155.408 192.750 155.650 C 192.394 156.083 191.288 155.960 190.750 156.350 C 189.272 157.425 187.814 158.640 186.650 160 C 185.957 160.809 185.726 162.690 185.300 162.900 C 185.058 163.091 185.056 161.601 185.150 160.900 C 185.278 159.983 185.687 159.087 186.150 158.300 C 186.688 157.385 187.345 156.456 188.250 155.900 Z " transform="matrix(0.2517606019973755, 0, 0, 0.2517606019973755, -17.75, -17.1)"/>
    </g>
    <g id="ID0.9394640577957034">
      <path id="ID0.6938812183216214" fill="#110109" stroke="url(#grad_8)" stroke-width="2" d="M 193.325 152.650 C 196.270 152.650 198.939 153.846 200.871 155.779 C 202.804 157.711 204 160.380 204 163.325 C 204 166.270 202.804 168.939 200.871 170.871 C 198.939 172.804 196.270 174 193.325 174 C 190.380 174 187.711 172.804 185.779 170.871 C 183.846 168.939 182.650 166.270 182.650 163.325 C 182.650 160.380 183.846 157.711 185.779 155.779 C 187.711 153.846 190.380 152.650 193.325 152.650 Z " transform="matrix(0.2517606019973755, 0, 0, 0.2517606019973755, -25.45, -16.55)"/>
      <path id="ID0.9396942704916" fill="#FFFFFF" stroke="none" stroke-linecap="round" d="M 188.250 155.900 C 189.275 155.271 190.549 155.066 191.750 155 C 192.117 154.980 192.894 155.408 192.750 155.650 C 192.394 156.083 191.288 155.960 190.750 156.350 C 189.272 157.425 187.814 158.640 186.650 160 C 185.957 160.809 185.726 162.690 185.300 162.900 C 185.058 163.091 185.056 161.601 185.150 160.900 C 185.278 159.983 185.687 159.087 186.150 158.300 C 186.688 157.385 187.345 156.456 188.250 155.900 Z " transform="matrix(0.2517606019973755, 0, 0, 0.2517606019973755, -25.45, -16.55)"/>
    </g>
    <g id="ID0.9394640577957034">
      <path id="ID0.6938812183216214" fill="#110109" stroke="url(#grad_9)" stroke-width="2" d="M 193.325 152.650 C 196.270 152.650 198.939 153.846 200.871 155.779 C 202.804 157.711 204 160.380 204 163.325 C 204 166.270 202.804 168.939 200.871 170.871 C 198.939 172.804 196.270 174 193.325 174 C 190.380 174 187.711 172.804 185.779 170.871 C 183.846 168.939 182.650 166.270 182.650 163.325 C 182.650 160.380 183.846 157.711 185.779 155.779 C 187.711 153.846 190.380 152.650 193.325 152.650 Z " transform="matrix(0.2517606019973755, 0, 0, 0.2517606019973755, -22.3, -11.75)"/>
      <path id="ID0.9396942704916" fill="#FFFFFF" stroke="none" stroke-linecap="round" d="M 188.250 155.900 C 189.275 155.271 190.549 155.066 191.750 155 C 192.117 154.980 192.894 155.408 192.750 155.650 C 192.394 156.083 191.288 155.960 190.750 156.350 C 189.272 157.425 187.814 158.640 186.650 160 C 185.957 160.809 185.726 162.690 185.300 162.900 C 185.058 163.091 185.056 161.601 185.150 160.900 C 185.278 159.983 185.687 159.087 186.150 158.300 C 186.688 157.385 187.345 156.456 188.250 155.900 Z " transform="matrix(0.2517606019973755, 0, 0, 0.2517606019973755, -22.3, -11.75)"/>
    </g>
  </g>
  <g id="ID0.17346098693087697">
    <g id="ID0.29466908797621727">
      <path id="ID0.05463147349655628" fill="#007124" stroke="none" stroke-linecap="round" d="M 199.100 136.150 L 199.650 136.150 L 200.500 136.450 L 201.300 140.600 L 201.750 141.750 L 202.650 142.300 L 203.050 142.800 L 202.800 143.800 L 199.150 143.800 L 199.100 136.150 Z " transform="matrix(0.321837842464447, -0.03964144363999367, 0.06890060007572174, 0.559384822845459, 10.05, -25.65)"/>
      <path id="ID0.05463147349655628" fill="#007124" stroke="none" stroke-linecap="round" d="M 199.100 136.150 L 199.650 136.150 L 200.500 136.450 L 201.300 140.600 L 201.750 141.750 L 202.650 142.300 L 203.050 142.800 L 202.800 143.800 L 199.150 143.800 L 199.100 136.150 Z " transform="matrix(-0.3218378722667694, 0.039641447365283966, 0.06890060007572174, 0.559384822845459, 138.25, -41.45)"/>
    </g>
    <path id="ID0.6938812183216214" fill="#110109" stroke="url(#grad_10)" stroke-width="2" d="M 193.325 152.650 C 196.270 152.650 198.939 153.846 200.871 155.779 C 202.804 157.711 204 160.380 204 163.325 C 204 166.270 202.804 168.939 200.871 170.871 C 198.939 172.804 196.270 174 193.325 174 C 190.380 174 187.711 172.804 185.779 170.871 C 183.846 168.939 182.650 166.270 182.650 163.325 C 182.650 160.380 183.846 157.711 185.779 155.779 C 187.711 153.846 190.380 152.650 193.325 152.650 Z " transform="matrix(0.2517606019973755, 0, 0, 0.2517606019973755, 35.35, 15.9)"/>
    <path id="ID0.6938812183216214" fill="#110109" stroke="url(#grad_11)" stroke-width="2" d="M 193.325 152.650 C 196.270 152.650 198.939 153.846 200.871 155.779 C 202.804 157.711 204 160.380 204 163.325 C 204 166.270 202.804 168.939 200.871 170.871 C 198.939 172.804 196.270 174 193.325 174 C 190.380 174 187.711 172.804 185.779 170.871 C 183.846 168.939 182.650 166.270 182.650 163.325 C 182.650 160.380 183.846 157.711 185.779 155.779 C 187.711 153.846 190.380 152.650 193.325 152.650 Z " transform="matrix(0.2517606019973755, 0, 0, 0.2517606019973755, 32.95, 13.7)"/>
    <path id="ID0.6938812183216214" fill="#110109" stroke="url(#grad_12)" stroke-width="2" d="M 193.325 152.650 C 196.270 152.650 198.939 153.846 200.871 155.779 C 202.804 157.711 204 160.380 204 163.325 C 204 166.270 202.804 168.939 200.871 170.871 C 198.939 172.804 196.270 174 193.325 174 C 190.380 174 187.711 172.804 185.779 170.871 C 183.846 168.939 182.650 166.270 182.650 163.325 C 182.650 160.380 183.846 157.711 185.779 155.779 C 187.711 153.846 190.380 152.650 193.325 152.650 Z " transform="matrix(0.2517606019973755, 0, 0, 0.2517606019973755, 37.3, 11.65)"/>
    <path id="ID0.6938812183216214" fill="#110109" stroke="url(#grad_13)" stroke-width="2" d="M 193.325 152.650 C 196.270 152.650 198.939 153.846 200.871 155.779 C 202.804 157.711 204 160.380 204 163.325 C 204 166.270 202.804 168.939 200.871 170.871 C 198.939 172.804 196.270 174 193.325 174 C 190.380 174 187.711 172.804 185.779 170.871 C 183.846 168.939 182.650 166.270 182.650 163.325 C 182.650 160.380 183.846 157.711 185.779 155.779 C 187.711 153.846 190.380 152.650 193.325 152.650 Z " transform="matrix(0.2517606019973755, 0, 0, 0.2517606019973755, 31.65, 11.4)"/>
    <path id="ID0.6938812183216214" fill="#110109" stroke="url(#grad_14)" stroke-width="2" d="M 193.325 152.650 C 196.270 152.650 198.939 153.846 200.871 155.779 C 202.804 157.711 204 160.380 204 163.325 C 204 166.270 202.804 168.939 200.871 170.871 C 198.939 172.804 196.270 174 193.325 174 C 190.380 174 187.711 172.804 185.779 170.871 C 183.846 168.939 182.650 166.270 182.650 163.325 C 182.650 160.380 183.846 157.711 185.779 155.779 C 187.711 153.846 190.380 152.650 193.325 152.650 Z " transform="matrix(0.2517606019973755, 0, 0, 0.2517606019973755, 33.55, 8.95)"/>
    <path id="ID0.6938812183216214" fill="#110109" stroke="url(#grad_15)" stroke-width="2" d="M 193.325 152.650 C 196.270 152.650 198.939 153.846 200.871 155.779 C 202.804 157.711 204 160.380 204 163.325 C 204 166.270 202.804 168.939 200.871 170.871 C 198.939 172.804 196.270 174 193.325 174 C 190.380 174 187.711 172.804 185.779 170.871 C 183.846 168.939 182.650 166.270 182.650 163.325 C 182.650 160.380 183.846 157.711 185.779 155.779 C 187.711 153.846 190.380 152.650 193.325 152.650 Z " transform="matrix(0.2517606019973755, 0, 0, 0.2517606019973755, 35.9, 7.8)"/>
    <g id="ID0.9394640577957034">
      <path id="ID0.6938812183216214" fill="#110109" stroke="url(#grad_16)" stroke-width="2" d="M 193.325 152.650 C 196.270 152.650 198.939 153.846 200.871 155.779 C 202.804 157.711 204 160.380 204 163.325 C 204 166.270 202.804 168.939 200.871 170.871 C 198.939 172.804 196.270 174 193.325 174 C 190.380 174 187.711 172.804 185.779 170.871 C 183.846 168.939 182.650 166.270 182.650 163.325 C 182.650 160.380 183.846 157.711 185.779 155.779 C 187.711 153.846 190.380 152.650 193.325 152.650 Z " transform="matrix(0.2517606019973755, 0, 0, 0.2517606019973755, 39, 7)"/>
      <path id="ID0.9396942704916" fill="#FFFFFF" stroke="none" stroke-linecap="round" d="M 188.250 155.900 C 189.275 155.271 190.549 155.066 191.750 155 C 192.117 154.980 192.894 155.408 192.750 155.650 C 192.394 156.083 191.288 155.960 190.750 156.350 C 189.272 157.425 187.814 158.640 186.650 160 C 185.957 160.809 185.726 162.690 185.300 162.900 C 185.058 163.091 185.056 161.601 185.150 160.900 C 185.278 159.983 185.687 159.087 186.150 158.300 C 186.688 157.385 187.345 156.456 188.250 155.900 Z " transform="matrix(0.2517606019973755, 0, 0, 0.2517606019973755, 39, 7)"/>
    </g>
    <g id="ID0.9394640577957034">
      <path id="ID0.6938812183216214" fill="#110109" stroke="url(#grad_17)" stroke-width="2" d="M 193.325 152.650 C 196.270 152.650 198.939 153.846 200.871 155.779 C 202.804 157.711 204 160.380 204 163.325 C 204 166.270 202.804 168.939 200.871 170.871 C 198.939 172.804 196.270 174 193.325 174 C 190.380 174 187.711 172.804 185.779 170.871 C 183.846 168.939 182.650 166.270 182.650 163.325 C 182.650 160.380 183.846 157.711 185.779 155.779 C 187.711 153.846 190.380 152.650 193.325 152.650 Z " transform="matrix(0.2517606019973755, 0, 0, 0.2517606019973755, 31.3, 7.55)"/>
      <path id="ID0.9396942704916" fill="#FFFFFF" stroke="none" stroke-linecap="round" d="M 188.250 155.900 C 189.275 155.271 190.549 155.066 191.750 155 C 192.117 154.980 192.894 155.408 192.750 155.650 C 192.394 156.083 191.288 155.960 190.750 156.350 C 189.272 157.425 187.814 158.640 186.650 160 C 185.957 160.809 185.726 162.690 185.300 162.900 C 185.058 163.091 185.056 161.601 185.150 160.900 C 185.278 159.983 185.687 159.087 186.150 158.300 C 186.688 157.385 187.345 156.456 188.250 155.900 Z " transform="matrix(0.2517606019973755, 0, 0, 0.2517606019973755, 31.3, 7.55)"/>
    </g>
    <g id="ID0.9394640577957034">
      <path id="ID0.6938812183216214" fill="#110109" stroke="url(#grad_18)" stroke-width="2" d="M 193.325 152.650 C 196.270 152.650 198.939 153.846 200.871 155.779 C 202.804 157.711 204 160.380 204 163.325 C 204 166.270 202.804 168.939 200.871 170.871 C 198.939 172.804 196.270 174 193.325 174 C 190.380 174 187.711 172.804 185.779 170.871 C 183.846 168.939 182.650 166.270 182.650 163.325 C 182.650 160.380 183.846 157.711 185.779 155.779 C 187.711 153.846 190.380 152.650 193.325 152.650 Z " transform="matrix(0.2517606019973755, 0, 0, 0.2517606019973755, 34.45, 12.35)"/>
      <path id="ID0.9396942704916" fill="#FFFFFF" stroke="none" stroke-linecap="round" d="M 188.250 155.900 C 189.275 155.271 190.549 155.066 191.750 155 C 192.117 154.980 192.894 155.408 192.750 155.650 C 192.394 156.083 191.288 155.960 190.750 156.350 C 189.272 157.425 187.814 158.640 186.650 160 C 185.957 160.809 185.726 162.690 185.300 162.900 C 185.058 163.091 185.056 161.601 185.150 160.900 C 185.278 159.983 185.687 159.087 186.150 158.300 C 186.688 157.385 187.345 156.456 188.250 155.900 Z " transform="matrix(0.2517606019973755, 0, 0, 0.2517606019973755, 34.45, 12.35)"/>
    </g>
  </g>
  <g id="ID0.17346098693087697">
    <g id="ID0.29466908797621727">
      <path id="ID0.05463147349655628" fill="#007124" stroke="none" stroke-linecap="round" d="M 199.100 136.150 L 199.650 136.150 L 200.500 136.450 L 201.300 140.600 L 201.750 141.750 L 202.650 142.300 L 203.050 142.800 L 202.800 143.800 L 199.150 143.800 L 199.100 136.150 Z " transform="matrix(0.321837842464447, -0.03964144363999367, 0.06890060007572174, 0.559384822845459, -1.1, -51.35)"/>
      <path id="ID0.05463147349655628" fill="#007124" stroke="none" stroke-linecap="round" d="M 199.100 136.150 L 199.650 136.150 L 200.500 136.450 L 201.300 140.600 L 201.750 141.750 L 202.650 142.300 L 203.050 142.800 L 202.800 143.800 L 199.150 143.800 L 199.100 136.150 Z " transform="matrix(-0.3218378722667694, 0.039641447365283966, 0.06890060007572174, 0.559384822845459, 127.05, -67.15)"/>
    </g>
    <path id="ID0.6938812183216214" fill="#110109" stroke="url(#grad_19)" stroke-width="2" d="M 193.325 152.650 C 196.270 152.650 198.939 153.846 200.871 155.779 C 202.804 157.711 204 160.380 204 163.325 C 204 166.270 202.804 168.939 200.871 170.871 C 198.939 172.804 196.270 174 193.325 174 C 190.380 174 187.711 172.804 185.779 170.871 C 183.846 168.939 182.650 166.270 182.650 163.325 C 182.650 160.380 183.846 157.711 185.779 155.779 C 187.711 153.846 190.380 152.650 193.325 152.650 Z " transform="matrix(0.2517606019973755, 0, 0, 0.2517606019973755, 24.15, -9.75)"/>
    <path id="ID0.6938812183216214" fill="#110109" stroke="url(#grad_20)" stroke-width="2" d="M 193.325 152.650 C 196.270 152.650 198.939 153.846 200.871 155.779 C 202.804 157.711 204 160.380 204 163.325 C 204 166.270 202.804 168.939 200.871 170.871 C 198.939 172.804 196.270 174 193.325 174 C 190.380 174 187.711 172.804 185.779 170.871 C 183.846 168.939 182.650 166.270 182.650 163.325 C 182.650 160.380 183.846 157.711 185.779 155.779 C 187.711 153.846 190.380 152.650 193.325 152.650 Z " transform="matrix(0.2517606019973755, 0, 0, 0.2517606019973755, 21.75, -11.95)"/>
    <path id="ID0.6938812183216214" fill="#110109" stroke="url(#grad_21)" stroke-width="2" d="M 193.325 152.650 C 196.270 152.650 198.939 153.846 200.871 155.779 C 202.804 157.711 204 160.380 204 163.325 C 204 166.270 202.804 168.939 200.871 170.871 C 198.939 172.804 196.270 174 193.325 174 C 190.380 174 187.711 172.804 185.779 170.871 C 183.846 168.939 182.650 166.270 182.650 163.325 C 182.650 160.380 183.846 157.711 185.779 155.779 C 187.711 153.846 190.380 152.650 193.325 152.650 Z " transform="matrix(0.2517606019973755, 0, 0, 0.2517606019973755, 26.1, -14)"/>
    <path id="ID0.6938812183216214" fill="#110109" stroke="url(#grad_22)" stroke-width="2" d="M 193.325 152.650 C 196.270 152.650 198.939 153.846 200.871 155.779 C 202.804 157.711 204 160.380 204 163.325 C 204 166.270 202.804 168.939 200.871 170.871 C 198.939 172.804 196.270 174 193.325 174 C 190.380 174 187.711 172.804 185.779 170.871 C 183.846 168.939 182.650 166.270 182.650 163.325 C 182.650 160.380 183.846 157.711 185.779 155.779 C 187.711 153.846 190.380 152.650 193.325 152.650 Z " transform="matrix(0.2517606019973755, 0, 0, 0.2517606019973755, 20.45, -14.25)"/>
    <path id="ID0.6938812183216214" fill="#110109" stroke="url(#grad_23)" stroke-width="2" d="M 193.325 152.650 C 196.270 152.650 198.939 153.846 200.871 155.779 C 202.804 157.711 204 160.380 204 163.325 C 204 166.270 202.804 168.939 200.871 170.871 C 198.939 172.804 196.270 174 193.325 174 C 190.380 174 187.711 172.804 185.779 170.871 C 183.846 168.939 182.650 166.270 182.650 163.325 C 182.650 160.380 183.846 157.711 185.779 155.779 C 187.711 153.846 190.380 152.650 193.325 152.650 Z " transform="matrix(0.2517606019973755, 0, 0, 0.2517606019973755, 22.35, -16.7)"/>
    <path id="ID0.6938812183216214" fill="#110109" stroke="url(#grad_24)" stroke-width="2" d="M 193.325 152.650 C 196.270 152.650 198.939 153.846 200.871 155.779 C 202.804 157.711 204 160.380 204 163.325 C 204 166.270 202.804 168.939 200.871 170.871 C 198.939 172.804 196.270 174 193.325 174 C 190.380 174 187.711 172.804 185.779 170.871 C 183.846 168.939 182.650 166.270 182.650 163.325 C 182.650 160.380 183.846 157.711 185.779 155.779 C 187.711 153.846 190.380 152.650 193.325 152.650 Z " transform="matrix(0.2517606019973755, 0, 0, 0.2517606019973755, 24.7, -17.85)"/>
    <g id="ID0.9394640577957034">
      <path id="ID0.6938812183216214" fill="#110109" stroke="url(#grad_25)" stroke-width="2" d="M 193.325 152.650 C 196.270 152.650 198.939 153.846 200.871 155.779 C 202.804 157.711 204 160.380 204 163.325 C 204 166.270 202.804 168.939 200.871 170.871 C 198.939 172.804 196.270 174 193.325 174 C 190.380 174 187.711 172.804 185.779 170.871 C 183.846 168.939 182.650 166.270 182.650 163.325 C 182.650 160.380 183.846 157.711 185.779 155.779 C 187.711 153.846 190.380 152.650 193.325 152.650 Z " transform="matrix(0.2517606019973755, 0, 0, 0.2517606019973755, 27.8, -18.65)"/>
      <path id="ID0.9396942704916" fill="#FFFFFF" stroke="none" stroke-linecap="round" d="M 188.250 155.900 C 189.275 155.271 190.549 155.066 191.750 155 C 192.117 154.980 192.894 155.408 192.750 155.650 C 192.394 156.083 191.288 155.960 190.750 156.350 C 189.272 157.425 187.814 158.640 186.650 160 C 185.957 160.809 185.726 162.690 185.300 162.900 C 185.058 163.091 185.056 161.601 185.150 160.900 C 185.278 159.983 185.687 159.087 186.150 158.300 C 186.688 157.385 187.345 156.456 188.250 155.900 Z " transform="matrix(0.2517606019973755, 0, 0, 0.2517606019973755, 27.8, -18.65)"/>
    </g>
    <g id="ID0.9394640577957034">
      <path id="ID0.6938812183216214" fill="#110109" stroke="url(#grad_26)" stroke-width="2" d="M 193.325 152.650 C 196.270 152.650 198.939 153.846 200.871 155.779 C 202.804 157.711 204 160.380 204 163.325 C 204 166.270 202.804 168.939 200.871 170.871 C 198.939 172.804 196.270 174 193.325 174 C 190.380 174 187.711 172.804 185.779 170.871 C 183.846 168.939 182.650 166.270 182.650 163.325 C 182.650 160.380 183.846 157.711 185.779 155.779 C 187.711 153.846 190.380 152.650 193.325 152.650 Z " transform="matrix(0.2517606019973755, 0, 0, 0.2517606019973755, 20.1, -18.1)"/>
      <path id="ID0.9396942704916" fill="#FFFFFF" stroke="none" stroke-linecap="round" d="M 188.250 155.900 C 189.275 155.271 190.549 155.066 191.750 155 C 192.117 154.980 192.894 155.408 192.750 155.650 C 192.394 156.083 191.288 155.960 190.750 156.350 C 189.272 157.425 187.814 158.640 186.650 160 C 185.957 160.809 185.726 162.690 185.300 162.900 C 185.058 163.091 185.056 161.601 185.150 160.900 C 185.278 159.983 185.687 159.087 186.150 158.300 C 186.688 157.385 187.345 156.456 188.250 155.900 Z " transform="matrix(0.2517606019973755, 0, 0, 0.2517606019973755, 20.1, -18.1)"/>
    </g>
    <g id="ID0.9394640577957034">
      <path id="ID0.6938812183216214" fill="#110109" stroke="url(#grad_27)" stroke-width="2" d="M 193.325 152.650 C 196.270 152.650 198.939 153.846 200.871 155.779 C 202.804 157.711 204 160.380 204 163.325 C 204 166.270 202.804 168.939 200.871 170.871 C 198.939 172.804 196.270 174 193.325 174 C 190.380 174 187.711 172.804 185.779 170.871 C 183.846 168.939 182.650 166.270 182.650 163.325 C 182.650 160.380 183.846 157.711 185.779 155.779 C 187.711 153.846 190.380 152.650 193.325 152.650 Z " transform="matrix(0.2517606019973755, 0, 0, 0.2517606019973755, 23.25, -13.3)"/>
      <path id="ID0.9396942704916" fill="#FFFFFF" stroke="none" stroke-linecap="round" d="M 188.250 155.900 C 189.275 155.271 190.549 155.066 191.750 155 C 192.117 154.980 192.894 155.408 192.750 155.650 C 192.394 156.083 191.288 155.960 190.750 156.350 C 189.272 157.425 187.814 158.640 186.650 160 C 185.957 160.809 185.726 162.690 185.300 162.900 C 185.058 163.091 185.056 161.601 185.150 160.900 C 185.278 159.983 185.687 159.087 186.150 158.300 C 186.688 157.385 187.345 156.456 188.250 155.900 Z " transform="matrix(0.2517606019973755, 0, 0, 0.2517606019973755, 23.25, -13.3)"/>
    </g>
  </g>
  <g id="ID0.17346098693087697">
    <g id="ID0.29466908797621727">
      <path id="ID0.05463147349655628" fill="#007124" stroke="none" stroke-linecap="round" d="M 199.100 136.150 L 199.650 136.150 L 200.500 136.450 L 201.300 140.600 L 201.750 141.750 L 202.650 142.300 L 203.050 142.800 L 202.800 143.800 L 199.150 143.800 L 199.100 136.150 Z " transform="matrix(0.321837842464447, -0.03964144363999367, 0.06890060007572174, 0.559384822845459, -47.35, -19.45)"/>
      <path id="ID0.05463147349655628" fill="#007124" stroke="none" stroke-linecap="round" d="M 199.100 136.150 L 199.650 136.150 L 200.500 136.450 L 201.300 140.600 L 201.750 141.750 L 202.650 142.300 L 203.050 142.800 L 202.800 143.800 L 199.150 143.800 L 199.100 136.150 Z " transform="matrix(-0.3218378722667694, 0.039641447365283966, 0.06890060007572174, 0.559384822845459, 80.8, -35.25)"/>
    </g>
    <path id="ID0.6938812183216214" fill="#110109" stroke="url(#grad_28)" stroke-width="2" d="M 193.325 152.650 C 196.270 152.650 198.939 153.846 200.871 155.779 C 202.804 157.711 204 160.380 204 163.325 C 204 166.270 202.804 168.939 200.871 170.871 C 198.939 172.804 196.270 174 193.325 174 C 190.380 174 187.711 172.804 185.779 170.871 C 183.846 168.939 182.650 166.270 182.650 163.325 C 182.650 160.380 183.846 157.711 185.779 155.779 C 187.711 153.846 190.380 152.650 193.325 152.650 Z " transform="matrix(0.2517606019973755, 0, 0, 0.2517606019973755, -22.05, 22.1)"/>
    <path id="ID0.6938812183216214" fill="#110109" stroke="url(#grad_29)" stroke-width="2" d="M 193.325 152.650 C 196.270 152.650 198.939 153.846 200.871 155.779 C 202.804 157.711 204 160.380 204 163.325 C 204 166.270 202.804 168.939 200.871 170.871 C 198.939 172.804 196.270 174 193.325 174 C 190.380 174 187.711 172.804 185.779 170.871 C 183.846 168.939 182.650 166.270 182.650 163.325 C 182.650 160.380 183.846 157.711 185.779 155.779 C 187.711 153.846 190.380 152.650 193.325 152.650 Z " transform="matrix(0.2517606019973755, 0, 0, 0.2517606019973755, -24.45, 19.9)"/>
    <path id="ID0.6938812183216214" fill="#110109" stroke="url(#grad_30)" stroke-width="2" d="M 193.325 152.650 C 196.270 152.650 198.939 153.846 200.871 155.779 C 202.804 157.711 204 160.380 204 163.325 C 204 166.270 202.804 168.939 200.871 170.871 C 198.939 172.804 196.270 174 193.325 174 C 190.380 174 187.711 172.804 185.779 170.871 C 183.846 168.939 182.650 166.270 182.650 163.325 C 182.650 160.380 183.846 157.711 185.779 155.779 C 187.711 153.846 190.380 152.650 193.325 152.650 Z " transform="matrix(0.2517606019973755, 0, 0, 0.2517606019973755, -20.1, 17.85)"/>
    <path id="ID0.6938812183216214" fill="#110109" stroke="url(#grad_31)" stroke-width="2" d="M 193.325 152.650 C 196.270 152.650 198.939 153.846 200.871 155.779 C 202.804 157.711 204 160.380 204 163.325 C 204 166.270 202.804 168.939 200.871 170.871 C 198.939 172.804 196.270 174 193.325 174 C 190.380 174 187.711 172.804 185.779 170.871 C 183.846 168.939 182.650 166.270 182.650 163.325 C 182.650 160.380 183.846 157.711 185.779 155.779 C 187.711 153.846 190.380 152.650 193.325 152.650 Z " transform="matrix(0.2517606019973755, 0, 0, 0.2517606019973755, -25.75, 17.6)"/>
    <path id="ID0.6938812183216214" fill="#110109" stroke="url(#grad_32)" stroke-width="2" d="M 193.325 152.650 C 196.270 152.650 198.939 153.846 200.871 155.779 C 202.804 157.711 204 160.380 204 163.325 C 204 166.270 202.804 168.939 200.871 170.871 C 198.939 172.804 196.270 174 193.325 174 C 190.380 174 187.711 172.804 185.779 170.871 C 183.846 168.939 182.650 166.270 182.650 163.325 C 182.650 160.380 183.846 157.711 185.779 155.779 C 187.711 153.846 190.380 152.650 193.325 152.650 Z " transform="matrix(0.2517606019973755, 0, 0, 0.2517606019973755, -23.85, 15.15)"/>
    <path id="ID0.6938812183216214" fill="#110109" stroke="url(#grad_33)" stroke-width="2" d="M 193.325 152.650 C 196.270 152.650 198.939 153.846 200.871 155.779 C 202.804 157.711 204 160.380 204 163.325 C 204 166.270 202.804 168.939 200.871 170.871 C 198.939 172.804 196.270 174 193.325 174 C 190.380 174 187.711 172.804 185.779 170.871 C 183.846 168.939 182.650 166.270 182.650 163.325 C 182.650 160.380 183.846 157.711 185.779 155.779 C 187.711 153.846 190.380 152.650 193.325 152.650 Z " transform="matrix(0.2517606019973755, 0, 0, 0.2517606019973755, -21.5, 14)"/>
    <g id="ID0.9394640577957034">
      <path id="ID0.6938812183216214" fill="#110109" stroke="url(#grad_34)" stroke-width="2" d="M 193.325 152.650 C 196.270 152.650 198.939 153.846 200.871 155.779 C 202.804 157.711 204 160.380 204 163.325 C 204 166.270 202.804 168.939 200.871 170.871 C 198.939 172.804 196.270 174 193.325 174 C 190.380 174 187.711 172.804 185.779 170.871 C 183.846 168.939 182.650 166.270 182.650 163.325 C 182.650 160.380 183.846 157.711 185.779 155.779 C 187.711 153.846 190.380 152.650 193.325 152.650 Z " transform="matrix(0.2517606019973755, 0, 0, 0.2517606019973755, -18.4, 13.2)"/>
      <path id="ID0.9396942704916" fill="#FFFFFF" stroke="none" stroke-linecap="round" d="M 188.250 155.900 C 189.275 155.271 190.549 155.066 191.750 155 C 192.117 154.980 192.894 155.408 192.750 155.650 C 192.394 156.083 191.288 155.960 190.750 156.350 C 189.272 157.425 187.814 158.640 186.650 160 C 185.957 160.809 185.726 162.690 185.300 162.900 C 185.058 163.091 185.056 161.601 185.150 160.900 C 185.278 159.983 185.687 159.087 186.150 158.300 C 186.688 157.385 187.345 156.456 188.250 155.900 Z " transform="matrix(0.2517606019973755, 0, 0, 0.2517606019973755, -18.4, 13.2)"/>
    </g>
    <g id="ID0.9394640577957034">
      <path id="ID0.6938812183216214" fill="#110109" stroke="url(#grad_35)" stroke-width="2" d="M 193.325 152.650 C 196.270 152.650 198.939 153.846 200.871 155.779 C 202.804 157.711 204 160.380 204 163.325 C 204 166.270 202.804 168.939 200.871 170.871 C 198.939 172.804 196.270 174 193.325 174 C 190.380 174 187.711 172.804 185.779 170.871 C 183.846 168.939 182.650 166.270 182.650 163.325 C 182.650 160.380 183.846 157.711 185.779 155.779 C 187.711 153.846 190.380 152.650 193.325 152.650 Z " transform="matrix(0.2517606019973755, 0, 0, 0.2517606019973755, -26.1, 13.75)"/>
      <path id="ID0.9396942704916" fill="#FFFFFF" stroke="none" stroke-linecap="round" d="M 188.250 155.900 C 189.275 155.271 190.549 155.066 191.750 155 C 192.117 154.980 192.894 155.408 192.750 155.650 C 192.394 156.083 191.288 155.960 190.750 156.350 C 189.272 157.425 187.814 158.640 186.650 160 C 185.957 160.809 185.726 162.690 185.300 162.900 C 185.058 163.091 185.056 161.601 185.150 160.900 C 185.278 159.983 185.687 159.087 186.150 158.300 C 186.688 157.385 187.345 156.456 188.250 155.900 Z " transform="matrix(0.2517606019973755, 0, 0, 0.2517606019973755, -26.1, 13.75)"/>
    </g>
    <g id="ID0.9394640577957034">
      <path id="ID0.6938812183216214" fill="#110109" stroke="url(#grad_36)" stroke-width="2" d="M 193.325 152.650 C 196.270 152.650 198.939 153.846 200.871 155.779 C 202.804 157.711 204 160.380 204 163.325 C 204 166.270 202.804 168.939 200.871 170.871 C 198.939 172.804 196.270 174 193.325 174 C 190.380 174 187.711 172.804 185.779 170.871 C 183.846 168.939 182.650 166.270 182.650 163.325 C 182.650 160.380 183.846 157.711 185.779 155.779 C 187.711 153.846 190.380 152.650 193.325 152.650 Z " transform="matrix(0.2517606019973755, 0, 0, 0.2517606019973755, -22.95, 18.55)"/>
      <path id="ID0.9396942704916" fill="#FFFFFF" stroke="none" stroke-linecap="round" d="M 188.250 155.900 C 189.275 155.271 190.549 155.066 191.750 155 C 192.117 154.980 192.894 155.408 192.750 155.650 C 192.394 156.083 191.288 155.960 190.750 156.350 C 189.272 157.425 187.814 158.640 186.650 160 C 185.957 160.809 185.726 162.690 185.300 162.900 C 185.058 163.091 185.056 161.601 185.150 160.900 C 185.278 159.983 185.687 159.087 186.150 158.300 C 186.688 157.385 187.345 156.456 188.250 155.900 Z " transform="matrix(0.2517606019973755, 0, 0, 0.2517606019973755, -22.95, 18.55)"/>
    </g>
  </g>
  <g id="ID0.17346098693087697">
    <g id="ID0.29466908797621727">
      <path id="ID0.05463147349655628" fill="#007124" stroke="none" stroke-linecap="round" d="M 199.100 136.150 L 199.650 136.150 L 200.500 136.450 L 201.300 140.600 L 201.750 141.750 L 202.650 142.300 L 203.050 142.800 L 202.800 143.800 L 199.150 143.800 L 199.100 136.150 Z " transform="matrix(0.321837842464447, -0.03964144363999367, 0.06890060007572174, 0.559384822845459, -22.4, -21.65)"/>
      <path id="ID0.05463147349655628" fill="#007124" stroke="none" stroke-linecap="round" d="M 199.100 136.150 L 199.650 136.150 L 200.500 136.450 L 201.300 140.600 L 201.750 141.750 L 202.650 142.300 L 203.050 142.800 L 202.800 143.800 L 199.150 143.800 L 199.100 136.150 Z " transform="matrix(-0.3218378722667694, 0.039641447365283966, 0.06890060007572174, 0.559384822845459, 105.75, -37.45)"/>
    </g>
    <path id="ID0.6938812183216214" fill="#110109" stroke="url(#grad_37)" stroke-width="2" d="M 193.325 152.650 C 196.270 152.650 198.939 153.846 200.871 155.779 C 202.804 157.711 204 160.380 204 163.325 C 204 166.270 202.804 168.939 200.871 170.871 C 198.939 172.804 196.270 174 193.325 174 C 190.380 174 187.711 172.804 185.779 170.871 C 183.846 168.939 182.650 166.270 182.650 163.325 C 182.650 160.380 183.846 157.711 185.779 155.779 C 187.711 153.846 190.380 152.650 193.325 152.650 Z " transform="matrix(0.2517606019973755, 0, 0, 0.2517606019973755, 2.85, 19.9)"/>
    <path id="ID0.6938812183216214" fill="#110109" stroke="url(#grad_38)" stroke-width="2" d="M 193.325 152.650 C 196.270 152.650 198.939 153.846 200.871 155.779 C 202.804 157.711 204 160.380 204 163.325 C 204 166.270 202.804 168.939 200.871 170.871 C 198.939 172.804 196.270 174 193.325 174 C 190.380 174 187.711 172.804 185.779 170.871 C 183.846 168.939 182.650 166.270 182.650 163.325 C 182.650 160.380 183.846 157.711 185.779 155.779 C 187.711 153.846 190.380 152.650 193.325 152.650 Z " transform="matrix(0.2517606019973755, 0, 0, 0.2517606019973755, 0.45, 17.7)"/>
    <path id="ID0.6938812183216214" fill="#110109" stroke="url(#grad_39)" stroke-width="2" d="M 193.325 152.650 C 196.270 152.650 198.939 153.846 200.871 155.779 C 202.804 157.711 204 160.380 204 163.325 C 204 166.270 202.804 168.939 200.871 170.871 C 198.939 172.804 196.270 174 193.325 174 C 190.380 174 187.711 172.804 185.779 170.871 C 183.846 168.939 182.650 166.270 182.650 163.325 C 182.650 160.380 183.846 157.711 185.779 155.779 C 187.711 153.846 190.380 152.650 193.325 152.650 Z " transform="matrix(0.2517606019973755, 0, 0, 0.2517606019973755, 4.8, 15.65)"/>
    <path id="ID0.6938812183216214" fill="#110109" stroke="url(#grad_40)" stroke-width="2" d="M 193.325 152.650 C 196.270 152.650 198.939 153.846 200.871 155.779 C 202.804 157.711 204 160.380 204 163.325 C 204 166.270 202.804 168.939 200.871 170.871 C 198.939 172.804 196.270 174 193.325 174 C 190.380 174 187.711 172.804 185.779 170.871 C 183.846 168.939 182.650 166.270 182.650 163.325 C 182.650 160.380 183.846 157.711 185.779 155.779 C 187.711 153.846 190.380 152.650 193.325 152.650 Z " transform="matrix(0.2517606019973755, 0, 0, 0.2517606019973755, -0.8, 15.4)"/>
    <path id="ID0.6938812183216214" fill="#110109" stroke="url(#grad_41)" stroke-width="2" d="M 193.325 152.650 C 196.270 152.650 198.939 153.846 200.871 155.779 C 202.804 157.711 204 160.380 204 163.325 C 204 166.270 202.804 168.939 200.871 170.871 C 198.939 172.804 196.270 174 193.325 174 C 190.380 174 187.711 172.804 185.779 170.871 C 183.846 168.939 182.650 166.270 182.650 163.325 C 182.650 160.380 183.846 157.711 185.779 155.779 C 187.711 153.846 190.380 152.650 193.325 152.650 Z " transform="matrix(0.2517606019973755, 0, 0, 0.2517606019973755, 1.05, 12.95)"/>
    <path id="ID0.6938812183216214" fill="#110109" stroke="url(#grad_42)" stroke-width="2" d="M 193.325 152.650 C 196.270 152.650 198.939 153.846 200.871 155.779 C 202.804 157.711 204 160.380 204 163.325 C 204 166.270 202.804 168.939 200.871 170.871 C 198.939 172.804 196.270 174 193.325 174 C 190.380 174 187.711 172.804 185.779 170.871 C 183.846 168.939 182.650 166.270 182.650 163.325 C 182.650 160.380 183.846 157.711 185.779 155.779 C 187.711 153.846 190.380 152.650 193.325 152.650 Z " transform="matrix(0.2517606019973755, 0, 0, 0.2517606019973755, 3.4, 11.8)"/>
    <g id="ID0.9394640577957034">
      <path id="ID0.6938812183216214" fill="#110109" stroke="url(#grad_43)" stroke-width="2" d="M 193.325 152.650 C 196.270 152.650 198.939 153.846 200.871 155.779 C 202.804 157.711 204 160.380 204 163.325 C 204 166.270 202.804 168.939 200.871 170.871 C 198.939 172.804 196.270 174 193.325 174 C 190.380 174 187.711 172.804 185.779 170.871 C 183.846 168.939 182.650 166.270 182.650 163.325 C 182.650 160.380 183.846 157.711 185.779 155.779 C 187.711 153.846 190.380 152.650 193.325 152.650 Z " transform="matrix(0.2517606019973755, 0, 0, 0.2517606019973755, 6.5, 11)"/>
      <path id="ID0.9396942704916" fill="#FFFFFF" stroke="none" stroke-linecap="round" d="M 188.250 155.900 C 189.275 155.271 190.549 155.066 191.750 155 C 192.117 154.980 192.894 155.408 192.750 155.650 C 192.394 156.083 191.288 155.960 190.750 156.350 C 189.272 157.425 187.814 158.640 186.650 160 C 185.957 160.809 185.726 162.690 185.300 162.900 C 185.058 163.091 185.056 161.601 185.150 160.900 C 185.278 159.983 185.687 159.087 186.150 158.300 C 186.688 157.385 187.345 156.456 188.250 155.900 Z " transform="matrix(0.2517606019973755, 0, 0, 0.2517606019973755, 6.5, 11)"/>
    </g>
    <g id="ID0.9394640577957034">
      <path id="ID0.6938812183216214" fill="#110109" stroke="url(#grad_44)" stroke-width="2" d="M 193.325 152.650 C 196.270 152.650 198.939 153.846 200.871 155.779 C 202.804 157.711 204 160.380 204 163.325 C 204 166.270 202.804 168.939 200.871 170.871 C 198.939 172.804 196.270 174 193.325 174 C 190.380 174 187.711 172.804 185.779 170.871 C 183.846 168.939 182.650 166.270 182.650 163.325 C 182.650 160.380 183.846 157.711 185.779 155.779 C 187.711 153.846 190.380 152.650 193.325 152.650 Z " transform="matrix(0.2517606019973755, 0, 0, 0.2517606019973755, -1.15, 11.55)"/>
      <path id="ID0.9396942704916" fill="#FFFFFF" stroke="none" stroke-linecap="round" d="M 188.250 155.900 C 189.275 155.271 190.549 155.066 191.750 155 C 192.117 154.980 192.894 155.408 192.750 155.650 C 192.394 156.083 191.288 155.960 190.750 156.350 C 189.272 157.425 187.814 158.640 186.650 160 C 185.957 160.809 185.726 162.690 185.300 162.900 C 185.058 163.091 185.056 161.601 185.150 160.900 C 185.278 159.983 185.687 159.087 186.150 158.300 C 186.688 157.385 187.345 156.456 188.250 155.900 Z " transform="matrix(0.2517606019973755, 0, 0, 0.2517606019973755, -1.15, 11.55)"/>
    </g>
    <g id="ID0.9394640577957034">
      <path id="ID0.6938812183216214" fill="#110109" stroke="url(#grad_45)" stroke-width="2" d="M 193.325 152.650 C 196.270 152.650 198.939 153.846 200.871 155.779 C 202.804 157.711 204 160.380 204 163.325 C 204 166.270 202.804 168.939 200.871 170.871 C 198.939 172.804 196.270 174 193.325 174 C 190.380 174 187.711 172.804 185.779 170.871 C 183.846 168.939 182.650 166.270 182.650 163.325 C 182.650 160.380 183.846 157.711 185.779 155.779 C 187.711 153.846 190.380 152.650 193.325 152.650 Z " transform="matrix(0.2517606019973755, 0, 0, 0.2517606019973755, 1.95, 16.35)"/>
      <path id="ID0.9396942704916" fill="#FFFFFF" stroke="none" stroke-linecap="round" d="M 188.250 155.900 C 189.275 155.271 190.549 155.066 191.750 155 C 192.117 154.980 192.894 155.408 192.750 155.650 C 192.394 156.083 191.288 155.960 190.750 156.350 C 189.272 157.425 187.814 158.640 186.650 160 C 185.957 160.809 185.726 162.690 185.300 162.900 C 185.058 163.091 185.056 161.601 185.150 160.900 C 185.278 159.983 185.687 159.087 186.150 158.300 C 186.688 157.385 187.345 156.456 188.250 155.900 Z " transform="matrix(0.2517606019973755, 0, 0, 0.2517606019973755, 1.95, 16.35)"/>
    </g>
  </g>
  <g id="ID0.17346098693087697">
    <g id="ID0.29466908797621727">
      <path id="ID0.05463147349655628" fill="#007124" stroke="none" stroke-linecap="round" d="M 199.100 136.150 L 199.650 136.150 L 200.500 136.450 L 201.300 140.600 L 201.750 141.750 L 202.650 142.300 L 203.050 142.800 L 202.800 143.800 L 199.150 143.800 L 199.100 136.150 Z " transform="matrix(0.321837842464447, -0.03964144363999367, 0.06890060007572174, 0.559384822845459, -12.95, -39.75)"/>
      <path id="ID0.05463147349655628" fill="#007124" stroke="none" stroke-linecap="round" d="M 199.100 136.150 L 199.650 136.150 L 200.500 136.450 L 201.300 140.600 L 201.750 141.750 L 202.650 142.300 L 203.050 142.800 L 202.800 143.800 L 199.150 143.800 L 199.100 136.150 Z " transform="matrix(-0.3218378722667694, 0.039641447365283966, 0.06890060007572174, 0.559384822845459, 115.2, -55.55)"/>
    </g>
    <path id="ID0.6938812183216214" fill="#110109" stroke="url(#grad_46)" stroke-width="2" d="M 193.325 152.650 C 196.270 152.650 198.939 153.846 200.871 155.779 C 202.804 157.711 204 160.380 204 163.325 C 204 166.270 202.804 168.939 200.871 170.871 C 198.939 172.804 196.270 174 193.325 174 C 190.380 174 187.711 172.804 185.779 170.871 C 183.846 168.939 182.650 166.270 182.650 163.325 C 182.650 160.380 183.846 157.711 185.779 155.779 C 187.711 153.846 190.380 152.650 193.325 152.650 Z " transform="matrix(0.2517606019973755, 0, 0, 0.2517606019973755, 12.3, 1.8)"/>
    <path id="ID0.6938812183216214" fill="#110109" stroke="url(#grad_47)" stroke-width="2" d="M 193.325 152.650 C 196.270 152.650 198.939 153.846 200.871 155.779 C 202.804 157.711 204 160.380 204 163.325 C 204 166.270 202.804 168.939 200.871 170.871 C 198.939 172.804 196.270 174 193.325 174 C 190.380 174 187.711 172.804 185.779 170.871 C 183.846 168.939 182.650 166.270 182.650 163.325 C 182.650 160.380 183.846 157.711 185.779 155.779 C 187.711 153.846 190.380 152.650 193.325 152.650 Z " transform="matrix(0.2517606019973755, 0, 0, 0.2517606019973755, 9.9, -0.35)"/>
    <path id="ID0.6938812183216214" fill="#110109" stroke="url(#grad_48)" stroke-width="2" d="M 193.325 152.650 C 196.270 152.650 198.939 153.846 200.871 155.779 C 202.804 157.711 204 160.380 204 163.325 C 204 166.270 202.804 168.939 200.871 170.871 C 198.939 172.804 196.270 174 193.325 174 C 190.380 174 187.711 172.804 185.779 170.871 C 183.846 168.939 182.650 166.270 182.650 163.325 C 182.650 160.380 183.846 157.711 185.779 155.779 C 187.711 153.846 190.380 152.650 193.325 152.650 Z " transform="matrix(0.2517606019973755, 0, 0, 0.2517606019973755, 14.25, -2.4)"/>
    <path id="ID0.6938812183216214" fill="#110109" stroke="url(#grad_49)" stroke-width="2" d="M 193.325 152.650 C 196.270 152.650 198.939 153.846 200.871 155.779 C 202.804 157.711 204 160.380 204 163.325 C 204 166.270 202.804 168.939 200.871 170.871 C 198.939 172.804 196.270 174 193.325 174 C 190.380 174 187.711 172.804 185.779 170.871 C 183.846 168.939 182.650 166.270 182.650 163.325 C 182.650 160.380 183.846 157.711 185.779 155.779 C 187.711 153.846 190.380 152.650 193.325 152.650 Z " transform="matrix(0.2517606019973755, 0, 0, 0.2517606019973755, 8.6, -2.65)"/>
    <path id="ID0.6938812183216214" fill="#110109" stroke="url(#grad_50)" stroke-width="2" d="M 193.325 152.650 C 196.270 152.650 198.939 153.846 200.871 155.779 C 202.804 157.711 204 160.380 204 163.325 C 204 166.270 202.804 168.939 200.871 170.871 C 198.939 172.804 196.270 174 193.325 174 C 190.380 174 187.711 172.804 185.779 170.871 C 183.846 168.939 182.650 166.270 182.650 163.325 C 182.650 160.380 183.846 157.711 185.779 155.779 C 187.711 153.846 190.380 152.650 193.325 152.650 Z " transform="matrix(0.2517606019973755, 0, 0, 0.2517606019973755, 10.5, -5.1)"/>
    <path id="ID0.6938812183216214" fill="#110109" stroke="url(#grad_51)" stroke-width="2" d="M 193.325 152.650 C 196.270 152.650 198.939 153.846 200.871 155.779 C 202.804 157.711 204 160.380 204 163.325 C 204 166.270 202.804 168.939 200.871 170.871 C 198.939 172.804 196.270 174 193.325 174 C 190.380 174 187.711 172.804 185.779 170.871 C 183.846 168.939 182.650 166.270 182.650 163.325 C 182.650 160.380 183.846 157.711 185.779 155.779 C 187.711 153.846 190.380 152.650 193.325 152.650 Z " transform="matrix(0.2517606019973755, 0, 0, 0.2517606019973755, 12.85, -6.25)"/>
    <g id="ID0.9394640577957034">
      <path id="ID0.6938812183216214" fill="#110109" stroke="url(#grad_52)" stroke-width="2" d="M 193.325 152.650 C 196.270 152.650 198.939 153.846 200.871 155.779 C 202.804 157.711 204 160.380 204 163.325 C 204 166.270 202.804 168.939 200.871 170.871 C 198.939 172.804 196.270 174 193.325 174 C 190.380 174 187.711 172.804 185.779 170.871 C 183.846 168.939 182.650 166.270 182.650 163.325 C 182.650 160.380 183.846 157.711 185.779 155.779 C 187.711 153.846 190.380 152.650 193.325 152.650 Z " transform="matrix(0.2517606019973755, 0, 0, 0.2517606019973755, 15.95, -7.05)"/>
      <path id="ID0.9396942704916" fill="#FFFFFF" stroke="none" stroke-linecap="round" d="M 188.250 155.900 C 189.275 155.271 190.549 155.066 191.750 155 C 192.117 154.980 192.894 155.408 192.750 155.650 C 192.394 156.083 191.288 155.960 190.750 156.350 C 189.272 157.425 187.814 158.640 186.650 160 C 185.957 160.809 185.726 162.690 185.300 162.900 C 185.058 163.091 185.056 161.601 185.150 160.900 C 185.278 159.983 185.687 159.087 186.150 158.300 C 186.688 157.385 187.345 156.456 188.250 155.900 Z " transform="matrix(0.2517606019973755, 0, 0, 0.2517606019973755, 15.95, -7.05)"/>
    </g>
    <g id="ID0.9394640577957034">
      <path id="ID0.6938812183216214" fill="#110109" stroke="url(#grad_53)" stroke-width="2" d="M 193.325 152.650 C 196.270 152.650 198.939 153.846 200.871 155.779 C 202.804 157.711 204 160.380 204 163.325 C 204 166.270 202.804 168.939 200.871 170.871 C 198.939 172.804 196.270 174 193.325 174 C 190.380 174 187.711 172.804 185.779 170.871 C 183.846 168.939 182.650 166.270 182.650 163.325 C 182.650 160.380 183.846 157.711 185.779 155.779 C 187.711 153.846 190.380 152.650 193.325 152.650 Z " transform="matrix(0.2517606019973755, 0, 0, 0.2517606019973755, 8.25, -6.5)"/>
      <path id="ID0.9396942704916" fill="#FFFFFF" stroke="none" stroke-linecap="round" d="M 188.250 155.900 C 189.275 155.271 190.549 155.066 191.750 155 C 192.117 154.980 192.894 155.408 192.750 155.650 C 192.394 156.083 191.288 155.960 190.750 156.350 C 189.272 157.425 187.814 158.640 186.650 160 C 185.957 160.809 185.726 162.690 185.300 162.900 C 185.058 163.091 185.056 161.601 185.150 160.900 C 185.278 159.983 185.687 159.087 186.150 158.300 C 186.688 157.385 187.345 156.456 188.250 155.900 Z " transform="matrix(0.2517606019973755, 0, 0, 0.2517606019973755, 8.25, -6.5)"/>
    </g>
    <g id="ID0.9394640577957034">
      <path id="ID0.6938812183216214" fill="#110109" stroke="url(#grad_54)" stroke-width="2" d="M 193.325 152.650 C 196.270 152.650 198.939 153.846 200.871 155.779 C 202.804 157.711 204 160.380 204 163.325 C 204 166.270 202.804 168.939 200.871 170.871 C 198.939 172.804 196.270 174 193.325 174 C 190.380 174 187.711 172.804 185.779 170.871 C 183.846 168.939 182.650 166.270 182.650 163.325 C 182.650 160.380 183.846 157.711 185.779 155.779 C 187.711 153.846 190.380 152.650 193.325 152.650 Z " transform="matrix(0.2517606019973755, 0, 0, 0.2517606019973755, 11.4, -1.7)"/>
      <path id="ID0.9396942704916" fill="#FFFFFF" stroke="none" stroke-linecap="round" d="M 188.250 155.900 C 189.275 155.271 190.549 155.066 191.750 155 C 192.117 154.980 192.894 155.408 192.750 155.650 C 192.394 156.083 191.288 155.960 190.750 156.350 C 189.272 157.425 187.814 158.640 186.650 160 C 185.957 160.809 185.726 162.690 185.300 162.900 C 185.058 163.091 185.056 161.601 185.150 160.900 C 185.278 159.983 185.687 159.087 186.150 158.300 C 186.688 157.385 187.345 156.456 188.250 155.900 Z " transform="matrix(0.2517606019973755, 0, 0, 0.2517606019973755, 11.4, -1.7)"/>
    </g>
  </g>
  <g id="ID0.17346098693087697">
    <g id="ID0.29466908797621727">
      <path id="ID0.05463147349655628" fill="#007124" stroke="none" stroke-linecap="round" d="M 199.100 136.150 L 199.650 136.150 L 200.500 136.450 L 201.300 140.600 L 201.750 141.750 L 202.650 142.300 L 203.050 142.800 L 202.800 143.800 L 199.150 143.800 L 199.100 136.150 Z " transform="matrix(0.321837842464447, -0.03964144363999367, 0.06890060007572174, 0.559384822845459, 34.6, -34.4)"/>
      <path id="ID0.05463147349655628" fill="#007124" stroke="none" stroke-linecap="round" d="M 199.100 136.150 L 199.650 136.150 L 200.500 136.450 L 201.300 140.600 L 201.750 141.750 L 202.650 142.300 L 203.050 142.800 L 202.800 143.800 L 199.150 143.800 L 199.100 136.150 Z " transform="matrix(-0.3218378722667694, 0.039641447365283966, 0.06890060007572174, 0.559384822845459, 162.8, -50.2)"/>
    </g>
    <path id="ID0.6938812183216214" fill="#110109" stroke="url(#grad_55)" stroke-width="2" d="M 193.325 152.650 C 196.270 152.650 198.939 153.846 200.871 155.779 C 202.804 157.711 204 160.380 204 163.325 C 204 166.270 202.804 168.939 200.871 170.871 C 198.939 172.804 196.270 174 193.325 174 C 190.380 174 187.711 172.804 185.779 170.871 C 183.846 168.939 182.650 166.270 182.650 163.325 C 182.650 160.380 183.846 157.711 185.779 155.779 C 187.711 153.846 190.380 152.650 193.325 152.650 Z " transform="matrix(0.2517606019973755, 0, 0, 0.2517606019973755, 59.9, 7.15)"/>
    <path id="ID0.6938812183216214" fill="#110109" stroke="url(#grad_56)" stroke-width="2" d="M 193.325 152.650 C 196.270 152.650 198.939 153.846 200.871 155.779 C 202.804 157.711 204 160.380 204 163.325 C 204 166.270 202.804 168.939 200.871 170.871 C 198.939 172.804 196.270 174 193.325 174 C 190.380 174 187.711 172.804 185.779 170.871 C 183.846 168.939 182.650 166.270 182.650 163.325 C 182.650 160.380 183.846 157.711 185.779 155.779 C 187.711 153.846 190.380 152.650 193.325 152.650 Z " transform="matrix(0.2517606019973755, 0, 0, 0.2517606019973755, 57.5, 4.95)"/>
    <path id="ID0.6938812183216214" fill="#110109" stroke="url(#grad_57)" stroke-width="2" d="M 193.325 152.650 C 196.270 152.650 198.939 153.846 200.871 155.779 C 202.804 157.711 204 160.380 204 163.325 C 204 166.270 202.804 168.939 200.871 170.871 C 198.939 172.804 196.270 174 193.325 174 C 190.380 174 187.711 172.804 185.779 170.871 C 183.846 168.939 182.650 166.270 182.650 163.325 C 182.650 160.380 183.846 157.711 185.779 155.779 C 187.711 153.846 190.380 152.650 193.325 152.650 Z " transform="matrix(0.2517606019973755, 0, 0, 0.2517606019973755, 61.85, 2.9)"/>
    <path id="ID0.6938812183216214" fill="#110109" stroke="url(#grad_58)" stroke-width="2" d="M 193.325 152.650 C 196.270 152.650 198.939 153.846 200.871 155.779 C 202.804 157.711 204 160.380 204 163.325 C 204 166.270 202.804 168.939 200.871 170.871 C 198.939 172.804 196.270 174 193.325 174 C 190.380 174 187.711 172.804 185.779 170.871 C 183.846 168.939 182.650 166.270 182.650 163.325 C 182.650 160.380 183.846 157.711 185.779 155.779 C 187.711 153.846 190.380 152.650 193.325 152.650 Z " transform="matrix(0.2517606019973755, 0, 0, 0.2517606019973755, 56.2, 2.65)"/>
    <path id="ID0.6938812183216214" fill="#110109" stroke="url(#grad_59)" stroke-width="2" d="M 193.325 152.650 C 196.270 152.650 198.939 153.846 200.871 155.779 C 202.804 157.711 204 160.380 204 163.325 C 204 166.270 202.804 168.939 200.871 170.871 C 198.939 172.804 196.270 174 193.325 174 C 190.380 174 187.711 172.804 185.779 170.871 C 183.846 168.939 182.650 166.270 182.650 163.325 C 182.650 160.380 183.846 157.711 185.779 155.779 C 187.711 153.846 190.380 152.650 193.325 152.650 Z " transform="matrix(0.2517606019973755, 0, 0, 0.2517606019973755, 58.1, 0.2)"/>
    <path id="ID0.6938812183216214" fill="#110109" stroke="url(#grad_60)" stroke-width="2" d="M 193.325 152.650 C 196.270 152.650 198.939 153.846 200.871 155.779 C 202.804 157.711 204 160.380 204 163.325 C 204 166.270 202.804 168.939 200.871 170.871 C 198.939 172.804 196.270 174 193.325 174 C 190.380 174 187.711 172.804 185.779 170.871 C 183.846 168.939 182.650 166.270 182.650 163.325 C 182.650 160.380 183.846 157.711 185.779 155.779 C 187.711 153.846 190.380 152.650 193.325 152.650 Z " transform="matrix(0.2517606019973755, 0, 0, 0.2517606019973755, 60.45, -0.9)"/>
    <g id="ID0.9394640577957034">
      <path id="ID0.6938812183216214" fill="#110109" stroke="url(#grad_61)" stroke-width="2" d="M 193.325 152.650 C 196.270 152.650 198.939 153.846 200.871 155.779 C 202.804 157.711 204 160.380 204 163.325 C 204 166.270 202.804 168.939 200.871 170.871 C 198.939 172.804 196.270 174 193.325 174 C 190.380 174 187.711 172.804 185.779 170.871 C 183.846 168.939 182.650 166.270 182.650 163.325 C 182.650 160.380 183.846 157.711 185.779 155.779 C 187.711 153.846 190.380 152.650 193.325 152.650 Z " transform="matrix(0.2517606019973755, 0, 0, 0.2517606019973755, 63.55, -1.7)"/>
      <path id="ID0.9396942704916" fill="#FFFFFF" stroke="none" stroke-linecap="round" d="M 188.250 155.900 C 189.275 155.271 190.549 155.066 191.750 155 C 192.117 154.980 192.894 155.408 192.750 155.650 C 192.394 156.083 191.288 155.960 190.750 156.350 C 189.272 157.425 187.814 158.640 186.650 160 C 185.957 160.809 185.726 162.690 185.300 162.900 C 185.058 163.091 185.056 161.601 185.150 160.900 C 185.278 159.983 185.687 159.087 186.150 158.300 C 186.688 157.385 187.345 156.456 188.250 155.900 Z " transform="matrix(0.2517606019973755, 0, 0, 0.2517606019973755, 63.55, -1.7)"/>
    </g>
    <g id="ID0.9394640577957034">
      <path id="ID0.6938812183216214" fill="#110109" stroke="url(#grad_62)" stroke-width="2" d="M 193.325 152.650 C 196.270 152.650 198.939 153.846 200.871 155.779 C 202.804 157.711 204 160.380 204 163.325 C 204 166.270 202.804 168.939 200.871 170.871 C 198.939 172.804 196.270 174 193.325 174 C 190.380 174 187.711 172.804 185.779 170.871 C 183.846 168.939 182.650 166.270 182.650 163.325 C 182.650 160.380 183.846 157.711 185.779 155.779 C 187.711 153.846 190.380 152.650 193.325 152.650 Z " transform="matrix(0.2517606019973755, 0, 0, 0.2517606019973755, 55.85, -1.15)"/>
      <path id="ID0.9396942704916" fill="#FFFFFF" stroke="none" stroke-linecap="round" d="M 188.250 155.900 C 189.275 155.271 190.549 155.066 191.750 155 C 192.117 154.980 192.894 155.408 192.750 155.650 C 192.394 156.083 191.288 155.960 190.750 156.350 C 189.272 157.425 187.814 158.640 186.650 160 C 185.957 160.809 185.726 162.690 185.300 162.900 C 185.058 163.091 185.056 161.601 185.150 160.900 C 185.278 159.983 185.687 159.087 186.150 158.300 C 186.688 157.385 187.345 156.456 188.250 155.900 Z " transform="matrix(0.2517606019973755, 0, 0, 0.2517606019973755, 55.85, -1.15)"/>
    </g>
    <g id="ID0.9394640577957034">
      <path id="ID0.6938812183216214" fill="#110109" stroke="url(#grad_63)" stroke-width="2" d="M 193.325 152.650 C 196.270 152.650 198.939 153.846 200.871 155.779 C 202.804 157.711 204 160.380 204 163.325 C 204 166.270 202.804 168.939 200.871 170.871 C 198.939 172.804 196.270 174 193.325 174 C 190.380 174 187.711 172.804 185.779 170.871 C 183.846 168.939 182.650 166.270 182.650 163.325 C 182.650 160.380 183.846 157.711 185.779 155.779 C 187.711 153.846 190.380 152.650 193.325 152.650 Z " transform="matrix(0.2517606019973755, 0, 0, 0.2517606019973755, 59, 3.6)"/>
      <path id="ID0.9396942704916" fill="#FFFFFF" stroke="none" stroke-linecap="round" d="M 188.250 155.900 C 189.275 155.271 190.549 155.066 191.750 155 C 192.117 154.980 192.894 155.408 192.750 155.650 C 192.394 156.083 191.288 155.960 190.750 156.350 C 189.272 157.425 187.814 158.640 186.650 160 C 185.957 160.809 185.726 162.690 185.300 162.900 C 185.058 163.091 185.056 161.601 185.150 160.900 C 185.278 159.983 185.687 159.087 186.150 158.300 C 186.688 157.385 187.345 156.456 188.250 155.900 Z " transform="matrix(0.2517606019973755, 0, 0, 0.2517606019973755, 59, 3.6)"/>
    </g>
  </g>
  <g id="ID0.17346098693087697">
    <g id="ID0.29466908797621727">
      <path id="ID0.05463147349655628" fill="#007124" stroke="none" stroke-linecap="round" d="M 199.100 136.150 L 199.650 136.150 L 200.500 136.450 L 201.300 140.600 L 201.750 141.750 L 202.650 142.300 L 203.050 142.800 L 202.800 143.800 L 199.150 143.800 L 199.100 136.150 Z " transform="matrix(0.321837842464447, -0.03964144363999367, 0.06890060007572174, 0.559384822845459, -24.4, -61.55)"/>
      <path id="ID0.05463147349655628" fill="#007124" stroke="none" stroke-linecap="round" d="M 199.100 136.150 L 199.650 136.150 L 200.500 136.450 L 201.300 140.600 L 201.750 141.750 L 202.650 142.300 L 203.050 142.800 L 202.800 143.800 L 199.150 143.800 L 199.100 136.150 Z " transform="matrix(-0.3218378722667694, 0.039641447365283966, 0.06890060007572174, 0.559384822845459, 103.75, -77.35)"/>
    </g>
    <path id="ID0.6938812183216214" fill="#110109" stroke="url(#grad_64)" stroke-width="2" d="M 193.325 152.650 C 196.270 152.650 198.939 153.846 200.871 155.779 C 202.804 157.711 204 160.380 204 163.325 C 204 166.270 202.804 168.939 200.871 170.871 C 198.939 172.804 196.270 174 193.325 174 C 190.380 174 187.711 172.804 185.779 170.871 C 183.846 168.939 182.650 166.270 182.650 163.325 C 182.650 160.380 183.846 157.711 185.779 155.779 C 187.711 153.846 190.380 152.650 193.325 152.650 Z " transform="matrix(0.2517606019973755, 0, 0, 0.2517606019973755, 0.85, -19.95)"/>
    <path id="ID0.6938812183216214" fill="#110109" stroke="url(#grad_65)" stroke-width="2" d="M 193.325 152.650 C 196.270 152.650 198.939 153.846 200.871 155.779 C 202.804 157.711 204 160.380 204 163.325 C 204 166.270 202.804 168.939 200.871 170.871 C 198.939 172.804 196.270 174 193.325 174 C 190.380 174 187.711 172.804 185.779 170.871 C 183.846 168.939 182.650 166.270 182.650 163.325 C 182.650 160.380 183.846 157.711 185.779 155.779 C 187.711 153.846 190.380 152.650 193.325 152.650 Z " transform="matrix(0.2517606019973755, 0, 0, 0.2517606019973755, -1.5, -22.15)"/>
    <path id="ID0.6938812183216214" fill="#110109" stroke="url(#grad_66)" stroke-width="2" d="M 193.325 152.650 C 196.270 152.650 198.939 153.846 200.871 155.779 C 202.804 157.711 204 160.380 204 163.325 C 204 166.270 202.804 168.939 200.871 170.871 C 198.939 172.804 196.270 174 193.325 174 C 190.380 174 187.711 172.804 185.779 170.871 C 183.846 168.939 182.650 166.270 182.650 163.325 C 182.650 160.380 183.846 157.711 185.779 155.779 C 187.711 153.846 190.380 152.650 193.325 152.650 Z " transform="matrix(0.2517606019973755, 0, 0, 0.2517606019973755, 2.8, -24.2)"/>
    <path id="ID0.6938812183216214" fill="#110109" stroke="url(#grad_67)" stroke-width="2" d="M 193.325 152.650 C 196.270 152.650 198.939 153.846 200.871 155.779 C 202.804 157.711 204 160.380 204 163.325 C 204 166.270 202.804 168.939 200.871 170.871 C 198.939 172.804 196.270 174 193.325 174 C 190.380 174 187.711 172.804 185.779 170.871 C 183.846 168.939 182.650 166.270 182.650 163.325 C 182.650 160.380 183.846 157.711 185.779 155.779 C 187.711 153.846 190.380 152.650 193.325 152.650 Z " transform="matrix(0.2517606019973755, 0, 0, 0.2517606019973755, -2.8, -24.45)"/>
    <path id="ID0.6938812183216214" fill="#110109" stroke="url(#grad_68)" stroke-width="2" d="M 193.325 152.650 C 196.270 152.650 198.939 153.846 200.871 155.779 C 202.804 157.711 204 160.380 204 163.325 C 204 166.270 202.804 168.939 200.871 170.871 C 198.939 172.804 196.270 174 193.325 174 C 190.380 174 187.711 172.804 185.779 170.871 C 183.846 168.939 182.650 166.270 182.650 163.325 C 182.650 160.380 183.846 157.711 185.779 155.779 C 187.711 153.846 190.380 152.650 193.325 152.650 Z " transform="matrix(0.2517606019973755, 0, 0, 0.2517606019973755, -0.9, -26.9)"/>
    <path id="ID0.6938812183216214" fill="#110109" stroke="url(#grad_69)" stroke-width="2" d="M 193.325 152.650 C 196.270 152.650 198.939 153.846 200.871 155.779 C 202.804 157.711 204 160.380 204 163.325 C 204 166.270 202.804 168.939 200.871 170.871 C 198.939 172.804 196.270 174 193.325 174 C 190.380 174 187.711 172.804 185.779 170.871 C 183.846 168.939 182.650 166.270 182.650 163.325 C 182.650 160.380 183.846 157.711 185.779 155.779 C 187.711 153.846 190.380 152.650 193.325 152.650 Z " transform="matrix(0.2517606019973755, 0, 0, 0.2517606019973755, 1.4, -28.05)"/>
    <g id="ID0.9394640577957034">
      <path id="ID0.6938812183216214" fill="#110109" stroke="url(#grad_70)" stroke-width="2" d="M 193.325 152.650 C 196.270 152.650 198.939 153.846 200.871 155.779 C 202.804 157.711 204 160.380 204 163.325 C 204 166.270 202.804 168.939 200.871 170.871 C 198.939 172.804 196.270 174 193.325 174 C 190.380 174 187.711 172.804 185.779 170.871 C 183.846 168.939 182.650 166.270 182.650 163.325 C 182.650 160.380 183.846 157.711 185.779 155.779 C 187.711 153.846 190.380 152.650 193.325 152.650 Z " transform="matrix(0.2517606019973755, 0, 0, 0.2517606019973755, 4.5, -28.85)"/>
      <path id="ID0.9396942704916" fill="#FFFFFF" stroke="none" stroke-linecap="round" d="M 188.250 155.900 C 189.275 155.271 190.549 155.066 191.750 155 C 192.117 154.980 192.894 155.408 192.750 155.650 C 192.394 156.083 191.288 155.960 190.750 156.350 C 189.272 157.425 187.814 158.640 186.650 160 C 185.957 160.809 185.726 162.690 185.300 162.900 C 185.058 163.091 185.056 161.601 185.150 160.900 C 185.278 159.983 185.687 159.087 186.150 158.300 C 186.688 157.385 187.345 156.456 188.250 155.900 Z " transform="matrix(0.2517606019973755, 0, 0, 0.2517606019973755, 4.5, -28.85)"/>
    </g>
    <g id="ID0.9394640577957034">
      <path id="ID0.6938812183216214" fill="#110109" stroke="url(#grad_71)" stroke-width="2" d="M 193.325 152.650 C 196.270 152.650 198.939 153.846 200.871 155.779 C 202.804 157.711 204 160.380 204 163.325 C 204 166.270 202.804 168.939 200.871 170.871 C 198.939 172.804 196.270 174 193.325 174 C 190.380 174 187.711 172.804 185.779 170.871 C 183.846 168.939 182.650 166.270 182.650 163.325 C 182.650 160.380 183.846 157.711 185.779 155.779 C 187.711 153.846 190.380 152.650 193.325 152.650 Z " transform="matrix(0.2517606019973755, 0, 0, 0.2517606019973755, -3.15, -28.3)"/>
      <path id="ID0.9396942704916" fill="#FFFFFF" stroke="none" stroke-linecap="round" d="M 188.250 155.900 C 189.275 155.271 190.549 155.066 191.750 155 C 192.117 154.980 192.894 155.408 192.750 155.650 C 192.394 156.083 191.288 155.960 190.750 156.350 C 189.272 157.425 187.814 158.640 186.650 160 C 185.957 160.809 185.726 162.690 185.300 162.900 C 185.058 163.091 185.056 161.601 185.150 160.900 C 185.278 159.983 185.687 159.087 186.150 158.300 C 186.688 157.385 187.345 156.456 188.250 155.900 Z " transform="matrix(0.2517606019973755, 0, 0, 0.2517606019973755, -3.15, -28.3)"/>
    </g>
    <g id="ID0.9394640577957034">
      <path id="ID0.6938812183216214" fill="#110109" stroke="url(#grad_72)" stroke-width="2" d="M 193.325 152.650 C 196.270 152.650 198.939 153.846 200.871 155.779 C 202.804 157.711 204 160.380 204 163.325 C 204 166.270 202.804 168.939 200.871 170.871 C 198.939 172.804 196.270 174 193.325 174 C 190.380 174 187.711 172.804 185.779 170.871 C 183.846 168.939 182.650 166.270 182.650 163.325 C 182.650 160.380 183.846 157.711 185.779 155.779 C 187.711 153.846 190.380 152.650 193.325 152.650 Z " transform="matrix(0.2517606019973755, 0, 0, 0.2517606019973755, 0, -23.5)"/>
      <path id="ID0.9396942704916" fill="#FFFFFF" stroke="none" stroke-linecap="round" d="M 188.250 155.900 C 189.275 155.271 190.549 155.066 191.750 155 C 192.117 154.980 192.894 155.408 192.750 155.650 C 192.394 156.083 191.288 155.960 190.750 156.350 C 189.272 157.425 187.814 158.640 186.650 160 C 185.957 160.809 185.726 162.690 185.300 162.900 C 185.058 163.091 185.056 161.601 185.150 160.900 C 185.278 159.983 185.687 159.087 186.150 158.300 C 186.688 157.385 187.345 156.456 188.250 155.900 Z " transform="matrix(0.2517606019973755, 0, 0, 0.2517606019973755, 0, -23.5)"/>
    </g>
  </g>
</svg>