<svg version="1.1" width="133" height="77" viewBox="-1 -1 133 77" xmlns="http://www.w3.org/2000/svg" xmlns:xlink="http://www.w3.org/1999/xlink">
  <!-- Exported by Scratch - http://scratch.mit.edu/ -->
  <path id="ID0.6654495340771973" fill="#FFFFFF" stroke="none" d="M 242.875 205 C 245.406 205 247.700 206.028 249.361 207.689 C 251.022 209.350 252.050 211.644 252.050 214.175 C 252.050 216.706 251.022 219 249.361 220.661 C 247.700 222.322 245.406 223.350 242.875 223.350 C 240.344 223.350 238.050 222.322 236.389 220.661 C 234.728 219 233.700 216.706 233.700 214.175 C 233.700 211.644 234.728 209.350 236.389 207.689 C 238.050 206.028 240.344 205 242.875 205 Z " transform="matrix(0.8528610467910767, 0, 0, 0.8528610467910767, -161.2, -115.55)"/>
  <path id="ID0.6654495340771973" fill="#FFFFFF" stroke="none" d="M 242.875 205 C 245.406 205 247.700 206.028 249.361 207.689 C 251.022 209.350 252.050 211.644 252.050 214.175 C 252.050 216.706 251.022 219 249.361 220.661 C 247.700 222.322 245.406 223.350 242.875 223.350 C 240.344 223.350 238.050 222.322 236.389 220.661 C 234.728 219 233.700 216.706 233.700 214.175 C 233.700 211.644 234.728 209.350 236.389 207.689 C 238.050 206.028 240.344 205 242.875 205 Z " transform="matrix(0.8528610467910767, 0, 0, 0.8528610467910767, -101.35, -115)"/>
  <path id="ID0.13960447488352656" fill="none" stroke="#FFFFFF" stroke-width="4" stroke-linecap="round" d="M 228.350 152.350 L 321.350 152.350 " transform="matrix(1.1149485111236572, 0, 0, 1, -229.25, -140.15)"/>
  <path id="ID0.35368437180295587" fill="none" stroke="#FFFFFF" stroke-width="6" stroke-linecap="round" d="M 326.650 153.150 L 308.650 194 L 235.300 194 L 221.300 152.650 L 214.250 143.150 L 200.500 143 " transform="matrix(1, 0, 0, 1, -197, -140)"/>
  <path id="ID0.13960447488352656" fill="none" stroke="#FFFFFF" stroke-width="4" stroke-linecap="round" d="M 228.350 152.350 L 321.350 152.350 " transform="matrix(0.9402061700820923, 0, 0, 1, -183.35, -119.25)"/>
  <path id="ID0.04132658848538995" fill="none" stroke="#FFFFFF" stroke-width="4" stroke-linecap="round" d="M 291.150 151.650 L 291.150 194 " transform="matrix(1, 0, 0, 0.9676375389099121, -185, -133.7)"/>
  <path id="ID0.04132658848538995" fill="none" stroke="#FFFFFF" stroke-width="4" stroke-linecap="round" d="M 291.150 151.650 L 291.150 194 " transform="matrix(1, 0, 0, 0.9676375389099121, -207.4, -133.6)"/>
  <path id="ID0.04132658848538995" fill="none" stroke="#FFFFFF" stroke-width="4" stroke-linecap="round" d="M 291.150 151.650 L 291.150 194 " transform="matrix(1, 0, 0, 0.9676375389099121, -227.65, -134.35)"/>
  <path id="ID0.04132658848538995" fill="none" stroke="#FFFFFF" stroke-width="4" stroke-linecap="round" d="M 291.150 151.650 L 291.150 194 " transform="matrix(1, 0, 0, 0.9676375389099121, -247.15, -134.7)"/>
</svg>