<svg version="1.1" width="79" height="52" viewBox="-1 -1 79 52" xmlns="http://www.w3.org/2000/svg" xmlns:xlink="http://www.w3.org/1999/xlink">
  <defs>
    <radialGradient id="grad_1" cx="0.0706" cy="0.5139" r="1.20822">
      <stop offset="0" stop-color="#4D052E" stop-opacity="1"/>
      <stop offset="1" stop-color="#110109" stop-opacity="1"/>
    </radialGradient>
    <radialGradient id="grad_2" cx="0.0706" cy="0.5139" r="1.20822">
      <stop offset="0" stop-color="#4D052E" stop-opacity="1"/>
      <stop offset="1" stop-color="#110109" stop-opacity="1"/>
    </radialGradient>
    <radialGradient id="grad_3" cx="0.0706" cy="0.5139" r="1.20822">
      <stop offset="0" stop-color="#4D052E" stop-opacity="1"/>
      <stop offset="1" stop-color="#110109" stop-opacity="1"/>
    </radialGradient>
    <radialGradient id="grad_4" cx="0.0706" cy="0.5139" r="1.20822">
      <stop offset="0" stop-color="#4D052E" stop-opacity="1"/>
      <stop offset="1" stop-color="#110109" stop-opacity="1"/>
    </radialGradient>
    <radialGradient id="grad_5" cx="0.0706" cy="0.5139" r="1.20822">
      <stop offset="0" stop-color="#4D052E" stop-opacity="1"/>
      <stop offset="1" stop-color="#110109" stop-opacity="1"/>
    </radialGradient>
    <radialGradient id="grad_6" cx="0.0706" cy="0.5139" r="1.20822">
      <stop offset="0" stop-color="#4D052E" stop-opacity="1"/>
      <stop offset="1" stop-color="#110109" stop-opacity="1"/>
    </radialGradient>
    <radialGradient id="grad_7" cx="0.0706" cy="0.5139" r="1.20822">
      <stop offset="0" stop-color="#4D052E" stop-opacity="1"/>
      <stop offset="1" stop-color="#110109" stop-opacity="1"/>
    </radialGradient>
    <radialGradient id="grad_8" cx="0.0706" cy="0.5139" r="1.20822">
      <stop offset="0" stop-color="#4D052E" stop-opacity="1"/>
      <stop offset="1" stop-color="#110109" stop-opacity="1"/>
    </radialGradient>
    <radialGradient id="grad_9" cx="0.0706" cy="0.5139" r="1.20822">
      <stop offset="0" stop-color="#4D052E" stop-opacity="1"/>
      <stop offset="1" stop-color="#110109" stop-opacity="1"/>
    </radialGradient>
    <radialGradient id="grad_10" cx="0.0706" cy="0.5139" r="1.20822">
      <stop offset="0" stop-color="#4D052E" stop-opacity="1"/>
      <stop offset="1" stop-color="#110109" stop-opacity="1"/>
    </radialGradient>
    <radialGradient id="grad_11" cx="0.0706" cy="0.5139" r="1.20822">
      <stop offset="0" stop-color="#4D052E" stop-opacity="1"/>
      <stop offset="1" stop-color="#110109" stop-opacity="1"/>
    </radialGradient>
    <radialGradient id="grad_12" cx="0.0706" cy="0.5139" r="1.20822">
      <stop offset="0" stop-color="#4D052E" stop-opacity="1"/>
      <stop offset="1" stop-color="#110109" stop-opacity="1"/>
    </radialGradient>
    <radialGradient id="grad_13" cx="0.0706" cy="0.5139" r="1.20822">
      <stop offset="0" stop-color="#4D052E" stop-opacity="1"/>
      <stop offset="1" stop-color="#110109" stop-opacity="1"/>
    </radialGradient>
    <radialGradient id="grad_14" cx="0.0706" cy="0.5139" r="1.20822">
      <stop offset="0" stop-color="#4D052E" stop-opacity="1"/>
      <stop offset="1" stop-color="#110109" stop-opacity="1"/>
    </radialGradient>
    <radialGradient id="grad_15" cx="0.0706" cy="0.5139" r="1.20822">
      <stop offset="0" stop-color="#4D052E" stop-opacity="1"/>
      <stop offset="1" stop-color="#110109" stop-opacity="1"/>
    </radialGradient>
    <radialGradient id="grad_16" cx="0.0706" cy="0.5139" r="1.20822">
      <stop offset="0" stop-color="#4D052E" stop-opacity="1"/>
      <stop offset="1" stop-color="#110109" stop-opacity="1"/>
    </radialGradient>
    <radialGradient id="grad_17" cx="0.0706" cy="0.5139" r="1.20822">
      <stop offset="0" stop-color="#4D052E" stop-opacity="1"/>
      <stop offset="1" stop-color="#110109" stop-opacity="1"/>
    </radialGradient>
    <radialGradient id="grad_18" cx="0.0706" cy="0.5139" r="1.20822">
      <stop offset="0" stop-color="#4D052E" stop-opacity="1"/>
      <stop offset="1" stop-color="#110109" stop-opacity="1"/>
    </radialGradient>
  </defs>
  <!-- Exported by Scratch - http://scratch.mit.edu/ -->
  <path id="ID0.8277191733941436" fill="none" stroke="#018179" stroke-width="3" stroke-linecap="round" d="M 251.300 181 L 275.150 181 " transform="matrix(1, 0, 0, 1, -209.85, -138.75)"/>
  <g id="ID0.879452068824321" transform="matrix(1, 0, 0, 1, -0.55, 0.75)">
    <g id="ID0.29466908797621727">
      <path id="ID0.05463147349655628" fill="#007124" stroke="none" stroke-linecap="round" d="M 199.100 136.150 L 199.650 136.150 L 200.500 136.450 L 201.300 140.600 L 201.750 141.750 L 202.650 142.300 L 203.050 142.800 L 202.800 143.800 L 199.150 143.800 L 199.100 136.150 Z " transform="matrix(0.1119016781449318, -0.19553665816783905, 0.33986136317253113, 0.1944957822561264, -22, 44.25)"/>
      <path id="ID0.05463147349655628" fill="#007124" stroke="none" stroke-linecap="round" d="M 199.100 136.150 L 199.650 136.150 L 200.500 136.450 L 201.300 140.600 L 201.750 141.750 L 202.650 142.300 L 203.050 142.800 L 202.800 143.800 L 199.150 143.800 L 199.100 136.150 Z " transform="matrix(-0.11190168559551239, 0.19553668797016144, 0.33986136317253113, 0.1944957822561264, 22.5, -33.6)"/>
    </g>
    <path id="ID0.6938812183216214" fill="#110109" stroke="url(#grad_1)" stroke-width="2" d="M 193.325 152.650 C 196.270 152.650 198.939 153.846 200.871 155.779 C 202.804 157.711 204 160.380 204 163.325 C 204 166.270 202.804 168.939 200.871 170.871 C 198.939 172.804 196.270 174 193.325 174 C 190.380 174 187.711 172.804 185.779 170.871 C 183.846 168.939 182.650 166.270 182.650 163.325 C 182.650 160.380 183.846 157.711 185.779 155.779 C 187.711 153.846 190.380 152.650 193.325 152.650 Z " transform="matrix(0.10478680580854416, -0.14005354046821594, 0.14005354046821594, 0.10478680580854416, 11.6, 47.45)"/>
    <path id="ID0.6938812183216214" fill="#110109" stroke="url(#grad_2)" stroke-width="2" d="M 193.325 152.650 C 196.270 152.650 198.939 153.846 200.871 155.779 C 202.804 157.711 204 160.380 204 163.325 C 204 166.270 202.804 168.939 200.871 170.871 C 198.939 172.804 196.270 174 193.325 174 C 190.380 174 187.711 172.804 185.779 170.871 C 183.846 168.939 182.650 166.270 182.650 163.325 C 182.650 160.380 183.846 157.711 185.779 155.779 C 187.711 153.846 190.380 152.650 193.325 152.650 Z " transform="matrix(0.10478680580854416, -0.14005354046821594, 0.14005354046821594, 0.10478680580854416, 9.45, 47.9)"/>
    <path id="ID0.6938812183216214" fill="#110109" stroke="url(#grad_3)" stroke-width="2" d="M 193.325 152.650 C 196.270 152.650 198.939 153.846 200.871 155.779 C 202.804 157.711 204 160.380 204 163.325 C 204 166.270 202.804 168.939 200.871 170.871 C 198.939 172.804 196.270 174 193.325 174 C 190.380 174 187.711 172.804 185.779 170.871 C 183.846 168.939 182.650 166.270 182.650 163.325 C 182.650 160.380 183.846 157.711 185.779 155.779 C 187.711 153.846 190.380 152.650 193.325 152.650 Z " transform="matrix(0.10478680580854416, -0.14005354046821594, 0.14005354046821594, 0.10478680580854416, 10.1, 44.6)"/>
    <path id="ID0.6938812183216214" fill="#110109" stroke="url(#grad_4)" stroke-width="2" d="M 193.325 152.650 C 196.270 152.650 198.939 153.846 200.871 155.779 C 202.804 157.711 204 160.380 204 163.325 C 204 166.270 202.804 168.939 200.871 170.871 C 198.939 172.804 196.270 174 193.325 174 C 190.380 174 187.711 172.804 185.779 170.871 C 183.846 168.939 182.650 166.270 182.650 163.325 C 182.650 160.380 183.846 157.711 185.779 155.779 C 187.711 153.846 190.380 152.650 193.325 152.650 Z " transform="matrix(0.10478680580854416, -0.14005354046821594, 0.14005354046821594, 0.10478680580854416, 7.55, 47.7)"/>
    <path id="ID0.6938812183216214" fill="#110109" stroke="url(#grad_5)" stroke-width="2" d="M 193.325 152.650 C 196.270 152.650 198.939 153.846 200.871 155.779 C 202.804 157.711 204 160.380 204 163.325 C 204 166.270 202.804 168.939 200.871 170.871 C 198.939 172.804 196.270 174 193.325 174 C 190.380 174 187.711 172.804 185.779 170.871 C 183.846 168.939 182.650 166.270 182.650 163.325 C 182.650 160.380 183.846 157.711 185.779 155.779 C 187.711 153.846 190.380 152.650 193.325 152.650 Z " transform="matrix(0.10478680580854416, -0.14005354046821594, 0.14005354046821594, 0.10478680580854416, 7, 45.6)"/>
    <path id="ID0.6938812183216214" fill="#110109" stroke="url(#grad_6)" stroke-width="2" d="M 193.325 152.650 C 196.270 152.650 198.939 153.846 200.871 155.779 C 202.804 157.711 204 160.380 204 163.325 C 204 166.270 202.804 168.939 200.871 170.871 C 198.939 172.804 196.270 174 193.325 174 C 190.380 174 187.711 172.804 185.779 170.871 C 183.846 168.939 182.650 166.270 182.650 163.325 C 182.650 160.380 183.846 157.711 185.779 155.779 C 187.711 153.846 190.380 152.650 193.325 152.650 Z " transform="matrix(0.10478680580854416, -0.14005354046821594, 0.14005354046821594, 0.10478680580854416, 7.35, 43.8)"/>
    <g id="ID0.9394640577957034">
      <path id="ID0.6938812183216214" fill="#110109" stroke="url(#grad_7)" stroke-width="2" d="M 193.325 152.650 C 196.270 152.650 198.939 153.846 200.871 155.779 C 202.804 157.711 204 160.380 204 163.325 C 204 166.270 202.804 168.939 200.871 170.871 C 198.939 172.804 196.270 174 193.325 174 C 190.380 174 187.711 172.804 185.779 170.871 C 183.846 168.939 182.650 166.270 182.650 163.325 C 182.650 160.380 183.846 157.711 185.779 155.779 C 187.711 153.846 190.380 152.650 193.325 152.650 Z " transform="matrix(0.10478680580854416, -0.14005354046821594, 0.14005354046821594, 0.10478680580854416, 8.15, 41.75)"/>
      <path id="ID0.9396942704916" fill="#FFFFFF" stroke="none" stroke-linecap="round" d="M 188.250 155.900 C 189.275 155.271 190.549 155.066 191.750 155 C 192.117 154.980 192.894 155.408 192.750 155.650 C 192.394 156.083 191.288 155.960 190.750 156.350 C 189.272 157.425 187.814 158.640 186.650 160 C 185.957 160.809 185.726 162.690 185.300 162.900 C 185.058 163.091 185.056 161.601 185.150 160.900 C 185.278 159.983 185.687 159.087 186.150 158.300 C 186.688 157.385 187.345 156.456 188.250 155.900 Z " transform="matrix(0.10478680580854416, -0.14005354046821594, 0.14005354046821594, 0.10478680580854416, 8.15, 41.75)"/>
    </g>
    <g id="ID0.9394640577957034">
      <path id="ID0.6938812183216214" fill="#110109" stroke="url(#grad_8)" stroke-width="2" d="M 193.325 152.650 C 196.270 152.650 198.939 153.846 200.871 155.779 C 202.804 157.711 204 160.380 204 163.325 C 204 166.270 202.804 168.939 200.871 170.871 C 198.939 172.804 196.270 174 193.325 174 C 190.380 174 187.711 172.804 185.779 170.871 C 183.846 168.939 182.650 166.270 182.650 163.325 C 182.650 160.380 183.846 157.711 185.779 155.779 C 187.711 153.846 190.380 152.650 193.325 152.650 Z " transform="matrix(0.10478680580854416, -0.14005354046821594, 0.14005354046821594, 0.10478680580854416, 5.3, 46.25)"/>
      <path id="ID0.9396942704916" fill="#FFFFFF" stroke="none" stroke-linecap="round" d="M 188.250 155.900 C 189.275 155.271 190.549 155.066 191.750 155 C 192.117 154.980 192.894 155.408 192.750 155.650 C 192.394 156.083 191.288 155.960 190.750 156.350 C 189.272 157.425 187.814 158.640 186.650 160 C 185.957 160.809 185.726 162.690 185.300 162.900 C 185.058 163.091 185.056 161.601 185.150 160.900 C 185.278 159.983 185.687 159.087 186.150 158.300 C 186.688 157.385 187.345 156.456 188.250 155.900 Z " transform="matrix(0.10478680580854416, -0.14005354046821594, 0.14005354046821594, 0.10478680580854416, 5.3, 46.25)"/>
    </g>
    <g id="ID0.9394640577957034">
      <path id="ID0.6938812183216214" fill="#110109" stroke="url(#grad_9)" stroke-width="2" d="M 193.325 152.650 C 196.270 152.650 198.939 153.846 200.871 155.779 C 202.804 157.711 204 160.380 204 163.325 C 204 166.270 202.804 168.939 200.871 170.871 C 198.939 172.804 196.270 174 193.325 174 C 190.380 174 187.711 172.804 185.779 170.871 C 183.846 168.939 182.650 166.270 182.650 163.325 C 182.650 160.380 183.846 157.711 185.779 155.779 C 187.711 153.846 190.380 152.650 193.325 152.650 Z " transform="matrix(0.10478680580854416, -0.14005354046821594, 0.14005354046821594, 0.10478680580854416, 9.25, 46.55)"/>
      <path id="ID0.9396942704916" fill="#FFFFFF" stroke="none" stroke-linecap="round" d="M 188.250 155.900 C 189.275 155.271 190.549 155.066 191.750 155 C 192.117 154.980 192.894 155.408 192.750 155.650 C 192.394 156.083 191.288 155.960 190.750 156.350 C 189.272 157.425 187.814 158.640 186.650 160 C 185.957 160.809 185.726 162.690 185.300 162.900 C 185.058 163.091 185.056 161.601 185.150 160.900 C 185.278 159.983 185.687 159.087 186.150 158.300 C 186.688 157.385 187.345 156.456 188.250 155.900 Z " transform="matrix(0.10478680580854416, -0.14005354046821594, 0.14005354046821594, 0.10478680580854416, 9.25, 46.55)"/>
    </g>
  </g>
  <path id="ID0.8826287291012704" fill="#01A69B" stroke="none" d="M 208.650 154 L 259.300 154 L 259.300 204.650 L 208.650 204.650 L 208.650 154 Z " transform="matrix(1, 0, 0, 1, -208.6, -153.25)"/>
  <path id="ID0.888628167565912" fill="#018179" stroke="none" d="M 239 158.150 L 254 158.150 L 254 165.650 L 239 165.650 L 239 158.150 Z " transform="matrix(1.0668082237243652, 0, 0, 0.9333333373069763, -224.85, -142.25)"/>
  <g id="ID0.879452068824321" transform="matrix(1, 0, 0, 1, -0.55, 0.75)">
    <g id="ID0.29466908797621727">
      <path id="ID0.05463147349655628" fill="#007124" stroke="none" stroke-linecap="round" d="M 199.100 136.150 L 199.650 136.150 L 200.500 136.450 L 201.300 140.600 L 201.750 141.750 L 202.650 142.300 L 203.050 142.800 L 202.800 143.800 L 199.150 143.800 L 199.100 136.150 Z " transform="matrix(0.1119016781449318, -0.19553665816783905, 0.33986136317253113, 0.1944957822561264, -2.1, 46.2)"/>
      <path id="ID0.05463147349655628" fill="#007124" stroke="none" stroke-linecap="round" d="M 199.100 136.150 L 199.650 136.150 L 200.500 136.450 L 201.300 140.600 L 201.750 141.750 L 202.650 142.300 L 203.050 142.800 L 202.800 143.800 L 199.150 143.800 L 199.100 136.150 Z " transform="matrix(-0.11190168559551239, 0.19553668797016144, 0.33986136317253113, 0.1944957822561264, 42.4, -31.65)"/>
    </g>
    <path id="ID0.6938812183216214" fill="#110109" stroke="url(#grad_10)" stroke-width="2" d="M 193.325 152.650 C 196.270 152.650 198.939 153.846 200.871 155.779 C 202.804 157.711 204 160.380 204 163.325 C 204 166.270 202.804 168.939 200.871 170.871 C 198.939 172.804 196.270 174 193.325 174 C 190.380 174 187.711 172.804 185.779 170.871 C 183.846 168.939 182.650 166.270 182.650 163.325 C 182.650 160.380 183.846 157.711 185.779 155.779 C 187.711 153.846 190.380 152.650 193.325 152.650 Z " transform="matrix(0.10478680580854416, -0.14005354046821594, 0.14005354046821594, 0.10478680580854416, 31.5, 49.4)"/>
    <path id="ID0.6938812183216214" fill="#110109" stroke="url(#grad_11)" stroke-width="2" d="M 193.325 152.650 C 196.270 152.650 198.939 153.846 200.871 155.779 C 202.804 157.711 204 160.380 204 163.325 C 204 166.270 202.804 168.939 200.871 170.871 C 198.939 172.804 196.270 174 193.325 174 C 190.380 174 187.711 172.804 185.779 170.871 C 183.846 168.939 182.650 166.270 182.650 163.325 C 182.650 160.380 183.846 157.711 185.779 155.779 C 187.711 153.846 190.380 152.650 193.325 152.650 Z " transform="matrix(0.10478680580854416, -0.14005354046821594, 0.14005354046821594, 0.10478680580854416, 29.35, 49.85)"/>
    <path id="ID0.6938812183216214" fill="#110109" stroke="url(#grad_12)" stroke-width="2" d="M 193.325 152.650 C 196.270 152.650 198.939 153.846 200.871 155.779 C 202.804 157.711 204 160.380 204 163.325 C 204 166.270 202.804 168.939 200.871 170.871 C 198.939 172.804 196.270 174 193.325 174 C 190.380 174 187.711 172.804 185.779 170.871 C 183.846 168.939 182.650 166.270 182.650 163.325 C 182.650 160.380 183.846 157.711 185.779 155.779 C 187.711 153.846 190.380 152.650 193.325 152.650 Z " transform="matrix(0.10478680580854416, -0.14005354046821594, 0.14005354046821594, 0.10478680580854416, 30, 46.55)"/>
    <path id="ID0.6938812183216214" fill="#110109" stroke="url(#grad_13)" stroke-width="2" d="M 193.325 152.650 C 196.270 152.650 198.939 153.846 200.871 155.779 C 202.804 157.711 204 160.380 204 163.325 C 204 166.270 202.804 168.939 200.871 170.871 C 198.939 172.804 196.270 174 193.325 174 C 190.380 174 187.711 172.804 185.779 170.871 C 183.846 168.939 182.650 166.270 182.650 163.325 C 182.650 160.380 183.846 157.711 185.779 155.779 C 187.711 153.846 190.380 152.650 193.325 152.650 Z " transform="matrix(0.10478680580854416, -0.14005354046821594, 0.14005354046821594, 0.10478680580854416, 27.45, 49.65)"/>
    <path id="ID0.6938812183216214" fill="#110109" stroke="url(#grad_14)" stroke-width="2" d="M 193.325 152.650 C 196.270 152.650 198.939 153.846 200.871 155.779 C 202.804 157.711 204 160.380 204 163.325 C 204 166.270 202.804 168.939 200.871 170.871 C 198.939 172.804 196.270 174 193.325 174 C 190.380 174 187.711 172.804 185.779 170.871 C 183.846 168.939 182.650 166.270 182.650 163.325 C 182.650 160.380 183.846 157.711 185.779 155.779 C 187.711 153.846 190.380 152.650 193.325 152.650 Z " transform="matrix(0.10478680580854416, -0.14005354046821594, 0.14005354046821594, 0.10478680580854416, 26.9, 47.55)"/>
    <path id="ID0.6938812183216214" fill="#110109" stroke="url(#grad_15)" stroke-width="2" d="M 193.325 152.650 C 196.270 152.650 198.939 153.846 200.871 155.779 C 202.804 157.711 204 160.380 204 163.325 C 204 166.270 202.804 168.939 200.871 170.871 C 198.939 172.804 196.270 174 193.325 174 C 190.380 174 187.711 172.804 185.779 170.871 C 183.846 168.939 182.650 166.270 182.650 163.325 C 182.650 160.380 183.846 157.711 185.779 155.779 C 187.711 153.846 190.380 152.650 193.325 152.650 Z " transform="matrix(0.10478680580854416, -0.14005354046821594, 0.14005354046821594, 0.10478680580854416, 27.25, 45.75)"/>
    <g id="ID0.9394640577957034">
      <path id="ID0.6938812183216214" fill="#110109" stroke="url(#grad_16)" stroke-width="2" d="M 193.325 152.650 C 196.270 152.650 198.939 153.846 200.871 155.779 C 202.804 157.711 204 160.380 204 163.325 C 204 166.270 202.804 168.939 200.871 170.871 C 198.939 172.804 196.270 174 193.325 174 C 190.380 174 187.711 172.804 185.779 170.871 C 183.846 168.939 182.650 166.270 182.650 163.325 C 182.650 160.380 183.846 157.711 185.779 155.779 C 187.711 153.846 190.380 152.650 193.325 152.650 Z " transform="matrix(0.10478680580854416, -0.14005354046821594, 0.14005354046821594, 0.10478680580854416, 28.05, 43.7)"/>
      <path id="ID0.9396942704916" fill="#FFFFFF" stroke="none" stroke-linecap="round" d="M 188.250 155.900 C 189.275 155.271 190.549 155.066 191.750 155 C 192.117 154.980 192.894 155.408 192.750 155.650 C 192.394 156.083 191.288 155.960 190.750 156.350 C 189.272 157.425 187.814 158.640 186.650 160 C 185.957 160.809 185.726 162.690 185.300 162.900 C 185.058 163.091 185.056 161.601 185.150 160.900 C 185.278 159.983 185.687 159.087 186.150 158.300 C 186.688 157.385 187.345 156.456 188.250 155.900 Z " transform="matrix(0.10478680580854416, -0.14005354046821594, 0.14005354046821594, 0.10478680580854416, 28.05, 43.7)"/>
    </g>
    <g id="ID0.9394640577957034">
      <path id="ID0.6938812183216214" fill="#110109" stroke="url(#grad_17)" stroke-width="2" d="M 193.325 152.650 C 196.270 152.650 198.939 153.846 200.871 155.779 C 202.804 157.711 204 160.380 204 163.325 C 204 166.270 202.804 168.939 200.871 170.871 C 198.939 172.804 196.270 174 193.325 174 C 190.380 174 187.711 172.804 185.779 170.871 C 183.846 168.939 182.650 166.270 182.650 163.325 C 182.650 160.380 183.846 157.711 185.779 155.779 C 187.711 153.846 190.380 152.650 193.325 152.650 Z " transform="matrix(0.10478680580854416, -0.14005354046821594, 0.14005354046821594, 0.10478680580854416, 25.2, 48.2)"/>
      <path id="ID0.9396942704916" fill="#FFFFFF" stroke="none" stroke-linecap="round" d="M 188.250 155.900 C 189.275 155.271 190.549 155.066 191.750 155 C 192.117 154.980 192.894 155.408 192.750 155.650 C 192.394 156.083 191.288 155.960 190.750 156.350 C 189.272 157.425 187.814 158.640 186.650 160 C 185.957 160.809 185.726 162.690 185.300 162.900 C 185.058 163.091 185.056 161.601 185.150 160.900 C 185.278 159.983 185.687 159.087 186.150 158.300 C 186.688 157.385 187.345 156.456 188.250 155.900 Z " transform="matrix(0.10478680580854416, -0.14005354046821594, 0.14005354046821594, 0.10478680580854416, 25.2, 48.2)"/>
    </g>
    <g id="ID0.9394640577957034">
      <path id="ID0.6938812183216214" fill="#110109" stroke="url(#grad_18)" stroke-width="2" d="M 193.325 152.650 C 196.270 152.650 198.939 153.846 200.871 155.779 C 202.804 157.711 204 160.380 204 163.325 C 204 166.270 202.804 168.939 200.871 170.871 C 198.939 172.804 196.270 174 193.325 174 C 190.380 174 187.711 172.804 185.779 170.871 C 183.846 168.939 182.650 166.270 182.650 163.325 C 182.650 160.380 183.846 157.711 185.779 155.779 C 187.711 153.846 190.380 152.650 193.325 152.650 Z " transform="matrix(0.10478680580854416, -0.14005354046821594, 0.14005354046821594, 0.10478680580854416, 29.15, 48.5)"/>
      <path id="ID0.9396942704916" fill="#FFFFFF" stroke="none" stroke-linecap="round" d="M 188.250 155.900 C 189.275 155.271 190.549 155.066 191.750 155 C 192.117 154.980 192.894 155.408 192.750 155.650 C 192.394 156.083 191.288 155.960 190.750 156.350 C 189.272 157.425 187.814 158.640 186.650 160 C 185.957 160.809 185.726 162.690 185.300 162.900 C 185.058 163.091 185.056 161.601 185.150 160.900 C 185.278 159.983 185.687 159.087 186.150 158.300 C 186.688 157.385 187.345 156.456 188.250 155.900 Z " transform="matrix(0.10478680580854416, -0.14005354046821594, 0.14005354046821594, 0.10478680580854416, 29.15, 48.5)"/>
    </g>
  </g>
  <path id="ID0.3577892193570733" fill="none" stroke="#018179" stroke-width="2" stroke-linecap="round" d="M 214 160.150 L 236.500 160.150 " transform="matrix(1, 0, 0, 1, -208.6, -153.25)"/>
  <path id="ID0.3577892193570733" fill="none" stroke="#018179" stroke-width="2" stroke-linecap="round" d="M 214 160.150 L 236.500 160.150 " transform="matrix(1, 0, 0, 1, -208.65, -148.95)"/>
  <path id="ID0.3577892193570733" fill="none" stroke="#018179" stroke-width="2" stroke-linecap="round" d="M 214 160.150 L 236.500 160.150 " transform="matrix(1, 0, 0, 1, -208.65, -144.85)"/>
  <path id="ID0.3577892193570733" fill="none" stroke="#018179" stroke-width="2" stroke-linecap="round" d="M 214 160.150 L 236.500 160.150 " transform="matrix(1, 0, 0, 1, -208.3, -141.1)"/>
  <path id="ID0.023890624288469553" fill="#00CC44" stroke="none" d="M 242 159.650 C 242.690 159.650 243.315 159.930 243.767 160.383 C 244.220 160.835 244.500 161.460 244.500 162.150 C 244.500 162.840 244.220 163.465 243.767 163.917 C 243.315 164.370 242.690 164.650 242 164.650 C 241.310 164.650 240.685 164.370 240.233 163.917 C 239.780 163.465 239.500 162.840 239.500 162.150 C 239.500 161.460 239.780 160.835 240.233 160.383 C 240.685 159.930 241.310 159.650 242 159.650 Z " transform="matrix(1, 0, 0, 1, -208.1, -153.25)"/>
  <path id="ID0.023890624288469553" fill="#FF0000" stroke="none" d="M 242 159.650 C 242.690 159.650 243.315 159.930 243.767 160.383 C 244.220 160.835 244.500 161.460 244.500 162.150 C 244.500 162.840 244.220 163.465 243.767 163.917 C 243.315 164.370 242.690 164.650 242 164.650 C 241.310 164.650 240.685 164.370 240.233 163.917 C 239.780 163.465 239.500 162.840 239.500 162.150 C 239.500 161.460 239.780 160.835 240.233 160.383 C 240.685 159.930 241.310 159.650 242 159.650 Z " transform="matrix(1, 0, 0, 1, -200.2, -153.25)"/>
</svg>